<?xml version="1.0" encoding="UTF-8"?>
<!DOCTYPE svg PUBLIC "-//W3C//DTD SVG 1.1//EN" "http://www.w3.org/Graphics/SVG/1.1/DTD/svg11.dtd">
<!-- Creator: CorelDRAW 2019 (64-Bit) -->
<svg xmlns="http://www.w3.org/2000/svg" xml:space="preserve" width="140mm" height="120mm" version="1.1" style="shape-rendering:geometricPrecision; text-rendering:geometricPrecision; image-rendering:optimizeQuality; fill-rule:evenodd; clip-rule:evenodd"
viewBox="0 0 14000 12000"
 xmlns:xlink="http://www.w3.org/1999/xlink"
 xmlns:xodm="http://www.corel.com/coreldraw/odm/2003">
 <defs>
  <style type="text/css">
   <![CDATA[
    .str3 {stroke:#96989A;stroke-width:26.46;stroke-miterlimit:22.9256}
    .str1 {stroke:#606062;stroke-width:35.28;stroke-miterlimit:22.9256}
    .str10 {stroke:#E6E7E8;stroke-width:17.64;stroke-miterlimit:22.9256}
    .str7 {stroke:#E6E7E8;stroke-width:17.64;stroke-miterlimit:22.9256}
    .str8 {stroke:#96989A;stroke-width:17.64;stroke-miterlimit:22.9256}
    .str2 {stroke:#373435;stroke-width:17.64;stroke-miterlimit:22.9256}
    .str0 {stroke:#012712;stroke-width:17.64;stroke-miterlimit:22.9256}
    .str5 {stroke:#44A578;stroke-width:17.64;stroke-miterlimit:22.9256}
    .str4 {stroke:#518D6B;stroke-width:17.64;stroke-miterlimit:22.9256}
    .str6 {stroke:#CCCCCC;stroke-width:17.64;stroke-miterlimit:22.9256}
    .str9 {stroke:white;stroke-width:17.64;stroke-miterlimit:22.9256}
    .fil0 {fill:none}
    .fil6 {fill:#E6E7E8}
    .fil5 {fill:#E6E7E8}
    .fil7 {fill:#96989A}
    .fil11 {fill:#373435}
    .fil1 {fill:#012712}
    .fil4 {fill:#44A578}
    .fil3 {fill:#518D6B}
    .fil2 {fill:#CCCCCC}
    .fil8 {fill:white}
    .fil12 {fill:#E6E7E8;fill-rule:nonzero}
    .fil10 {fill:#373435;fill-rule:nonzero}
    .fil13 {fill:#012712;fill-rule:nonzero}
    .fil9 {fill:#44A578;fill-rule:nonzero}
    .fil14 {fill:white;fill-rule:nonzero}
   ]]>
  </style>
 </defs>
 <g id="Capa_x0020_1">
  <metadata id="CorelCorpID_0Corel-Layer"/>
  <g>
   <path class="fil0 str0" d="M5256.39 10126.55c4.4,83.78 11.46,164.92 37.92,225.78 26.45,60.85 72.32,101.42 100.54,130.53 28.22,29.1 38.81,46.73 47.63,83.78 8.81,37.04 15.87,93.48 62.61,144.64 46.74,51.15 133.18,97.01 176.4,119.94 43.21,22.93 43.21,22.93 88.19,28.22 44.98,5.29 134.93,15.88 222.25,26.46 87.31,10.58 171.97,21.17 276.04,25.58 104.07,4.41 227.55,2.64 339.56,-13.23 112,-15.88 212.55,-45.86 262.82,-60.85 50.27,-15 50.27,-15 57.33,-28.23 7.05,-13.23 21.16,-39.68 28.22,-74.96 7.05,-35.28 7.05,-79.38 15.87,-103.19 8.82,-23.82 26.46,-27.34 59.09,-37.04 32.63,-9.71 80.26,-25.58 114.66,-45.86 34.39,-20.29 55.55,-44.99 69.67,-74.97 14.11,-29.99 21.16,-65.26 22.93,-100.54 1.76,-35.28 -1.76,-70.56 -3.52,-88.2 -1.77,-17.64 -1.77,-17.64 -46.75,-40.57 -44.98,-22.93 -134.94,-68.79 -183.45,-160.51 -48.51,-91.72 -55.56,-229.31 35.28,-349.25 90.84,-119.95 279.57,-222.25 425.98,-349.25 146.4,-127 250.47,-278.7 377.47,-397.76 127,-119.06 276.94,-205.5 453.33,-286.64 176.39,-81.14 379.23,-156.98 589.14,-256.64 209.9,-99.66 426.86,-223.14 717.91,-411.87 291.04,-188.74 656.16,-442.74 925.16,-708.2 268.99,-265.47 441.85,-542.4 445.38,-746.13 3.52,-203.73 -162.28,-334.26 -277.81,-410.99 -115.54,-76.73 -180.81,-99.66 -228.43,-115.53 -47.63,-15.88 -77.61,-24.7 -137.58,12.34 -59.98,37.04 -149.93,119.95 -247.83,232.84 -97.9,112.89 -203.73,255.76 -286.63,364.24 -82.91,108.48 -142.88,182.57 -239.89,277.82 -97.02,95.25 -231.07,211.66 -383.65,329.84 -152.58,118.18 -323.67,238.13 -488.59,343.96 -164.93,105.83 -323.69,197.56 -448.04,265.47 -124.36,67.91 -214.31,112 -779.62,96.13 -565.32,-15.87 -1605.99,-91.72 -2133.39,-41.44 -527.41,50.27 -541.55,226.65 -599.77,347.48 -58.22,120.82 -160.53,186.09 -239.02,232.83 -78.49,46.74 -133.18,74.97 -194.03,109.37 -60.86,34.39 -127.88,74.96 -188.73,108.48 -60.86,33.51 -115.54,59.96 -295.45,54.67 -179.92,-5.29 -485.08,-42.33 -662.35,-22.04 -177.27,20.28 -226.66,97.89 -251.35,216.95 -24.7,119.06 -24.7,279.58 -31.75,420.69 -7.06,141.11 -21.17,262.82 56.44,326.32 77.61,63.5 246.95,68.8 381.01,77.62 134.05,8.82 232.82,21.16 373.05,-0.89 140.23,-22.05 321.91,-78.49 469.2,-141.99 147.28,-63.5 260.17,-134.06 355.42,-196.67 95.25,-62.62 172.87,-117.31 211.68,-144.65 38.8,-27.34 38.8,-27.34 81.14,-55.56 42.33,-28.22 126.99,-84.67 210.78,11.47 83.78,96.13 166.69,344.84 209.02,512.41 42.33,167.57 44.1,254 48.51,337.79z"/>
   <path id="1" class="fil1" d="M5256.39 10126.55c4.4,83.78 11.46,164.92 37.92,225.78 26.45,60.85 72.32,101.42 100.54,130.53 28.22,29.1 38.81,46.73 47.63,83.78 8.81,37.04 15.87,93.48 62.61,144.64 46.74,51.15 133.18,97.01 176.4,119.94 43.21,22.93 43.21,22.93 88.19,28.22 44.98,5.29 134.93,15.88 222.25,26.46 87.31,10.58 171.97,21.17 276.04,25.58 104.07,4.41 227.55,2.64 339.56,-13.23 112,-15.88 212.55,-45.86 262.82,-60.85 50.27,-15 50.27,-15 57.33,-28.23 7.05,-13.23 21.16,-39.68 28.22,-74.96 7.05,-35.28 7.05,-79.38 15.87,-103.19 8.82,-23.82 26.46,-27.34 59.09,-37.04 32.63,-9.71 80.26,-25.58 114.66,-45.86 34.39,-20.29 55.55,-44.99 69.67,-74.97 14.11,-29.99 21.16,-65.26 22.93,-100.54 1.76,-35.28 -1.76,-70.56 -3.52,-88.2 -1.77,-17.64 -1.77,-17.64 -46.75,-40.57 -44.98,-22.93 -134.94,-68.79 -183.45,-160.51 -48.51,-91.72 -55.56,-229.31 35.28,-349.25 90.84,-119.95 279.57,-222.25 425.98,-349.25 146.4,-127 250.47,-278.7 377.47,-397.76 127,-119.06 276.94,-205.5 453.33,-286.64 176.39,-81.14 379.23,-156.98 589.14,-256.64 209.9,-99.66 426.86,-223.14 717.91,-411.87 291.04,-188.74 656.16,-442.74 925.16,-708.2 268.99,-265.47 441.85,-542.4 445.38,-746.13 3.52,-203.73 -162.28,-334.26 -277.81,-410.99 -115.54,-76.73 -180.81,-99.66 -228.43,-115.53 -47.63,-15.88 -77.61,-24.7 -137.58,12.34 -59.98,37.04 -149.93,119.95 -247.83,232.84 -97.9,112.89 -203.73,255.76 -286.63,364.24 -82.91,108.48 -142.88,182.57 -239.89,277.82 -97.02,95.25 -231.07,211.66 -383.65,329.84 -152.58,118.18 -323.67,238.13 -488.59,343.96 -164.93,105.83 -323.69,197.56 -448.04,265.47 -124.36,67.91 -214.31,112 -779.62,96.13 -565.32,-15.87 -1605.99,-91.72 -2133.39,-41.44 -527.41,50.27 -541.55,226.65 -599.77,347.48 -58.22,120.82 -160.53,186.09 -239.02,232.83 -78.49,46.74 -133.18,74.97 -194.03,109.37 -60.86,34.39 -127.88,74.96 -188.73,108.48 -60.86,33.51 -115.54,59.96 -295.45,54.67 -179.92,-5.29 -485.08,-42.33 -662.35,-22.04 -177.27,20.28 -226.66,97.89 -251.35,216.95 -24.7,119.06 -24.7,279.58 -31.75,420.69 -7.06,141.11 -21.17,262.82 56.44,326.32 77.61,63.5 246.95,68.8 381.01,77.62 134.05,8.82 232.82,21.16 373.05,-0.89 140.23,-22.05 321.91,-78.49 469.2,-141.99 147.28,-63.5 260.17,-134.06 355.42,-196.67 95.25,-62.62 172.87,-117.31 211.68,-144.65 38.8,-27.34 38.8,-27.34 81.14,-55.56 42.33,-28.22 126.99,-84.67 210.78,11.47 83.78,96.13 166.69,344.84 209.02,512.41 42.33,167.57 44.1,254 48.51,337.79z"/>
  </g>
  <g>
   <path class="fil0 str1" d="M5434.2 10539.13c79.22,38.87 158.44,77.73 263.32,111.28 104.87,33.54 235.39,61.76 369.45,76.75 134.05,14.99 271.64,16.76 402.17,5.74 130.52,-11.03 254,-34.84 340.66,-58.22 86.66,-23.39 136.52,-46.36 186.37,-69.32"/>
  </g>
  <g>
   <path class="fil0 str1" d="M7187.85 10243.84c-139.32,48.22 -278.65,96.44 -422.39,130.25 -143.75,33.81 -291.91,53.21 -445.37,54.53 -153.46,1.32 -312.21,-15.43 -437.89,-29.98 -125.68,-14.56 -218.28,-26.9 -295.89,-46.3 -77.62,-19.41 -140.23,-45.86 -191.97,-73.55 -51.75,-27.7 -92.63,-56.62 -133.5,-85.55"/>
  </g>
  <g>
   <path class="fil0 str2" d="M3788.03 10012.78c61.73,-114.65 128.76,-319.27 181.81,-547.98 53.05,-228.72 92.13,-481.55 93.89,-672.05 1.76,-190.5 -33.78,-318.67 -111.52,-426.85 -77.75,-108.19 -197.7,-196.39 -344.1,-281.05 -146.4,-84.67 -319.27,-165.81 -548.57,-227.54 -229.31,-61.74 -515.06,-104.08 -709.08,-119.95 -194.03,-15.88 -296.34,-5.29 -379.24,52.92 -82.9,58.2 -146.4,164.04 -204.61,322.79 -58.21,158.75 -111.12,370.41 -135.81,643.82 -24.7,273.4 -21.18,608.54 -5.3,823.74 15.87,215.19 44.1,310.44 146.41,398.64 102.3,88.19 278.68,169.33 525.63,211.67 246.94,42.33 564.44,45.85 795.51,37.03 231.07,-8.82 375.71,-29.98 476.25,-52.91 100.54,-22.93 156.99,-47.63 218.73,-162.28z"/>
   <path id="1" class="fil2" d="M3788.03 10012.78c61.73,-114.65 128.76,-319.27 181.81,-547.98 53.05,-228.72 92.13,-481.55 93.89,-672.05 1.76,-190.5 -33.78,-318.67 -111.52,-426.85 -77.75,-108.19 -197.7,-196.39 -344.1,-281.05 -146.4,-84.67 -319.27,-165.81 -548.57,-227.54 -229.31,-61.74 -515.06,-104.08 -709.08,-119.95 -194.03,-15.88 -296.34,-5.29 -379.24,52.92 -82.9,58.2 -146.4,164.04 -204.61,322.79 -58.21,158.75 -111.12,370.41 -135.81,643.82 -24.7,273.4 -21.18,608.54 -5.3,823.74 15.87,215.19 44.1,310.44 146.41,398.64 102.3,88.19 278.68,169.33 525.63,211.67 246.94,42.33 564.44,45.85 795.51,37.03 231.07,-8.82 375.71,-29.98 476.25,-52.91 100.54,-22.93 156.99,-47.63 218.73,-162.28z"/>
  </g>
  <g>
   <path class="fil0 str3" d="M2756.92 10230.33c77.35,-88.39 154.71,-176.79 219.85,-295.07 65.13,-118.28 118.04,-266.44 151.56,-374.04 33.51,-107.6 47.63,-174.62 54.69,-208.13 7.05,-33.52 7.05,-33.52 84.66,-17.64 77.61,15.87 232.83,47.62 342.19,63.5 109.36,15.87 172.86,15.87 227.24,15.2 54.38,-0.67 99.64,-2.02 144.9,-3.36"/>
  </g>
  <g>
   <path class="fil0 str4" d="M2179.36 9538.29c65.26,35.28 199.32,35.28 305.15,17.64 105.83,-17.64 183.45,-52.91 242,-97.13 58.54,-44.22 98.01,-97.37 122.4,-178.66 24.39,-81.29 33.68,-190.71 45.7,-317.59 12.01,-126.88 26.73,-271.22 27.04,-373.37 0.31,-102.16 -13.81,-162.14 -61.43,-200.94 -47.63,-38.81 -128.76,-56.45 -218.72,-75.85 -89.96,-19.41 -188.74,-40.57 -264.59,-51.15 -75.85,-10.59 -128.76,-10.59 -155.22,-1.77 -26.46,8.82 -26.46,26.46 -37.04,128.77 -10.59,102.3 -31.75,289.28 -42.33,425.1 -10.59,135.82 -10.59,220.48 -12.35,278.69 -1.77,58.21 -5.29,89.96 -7.05,130.53 -1.77,40.57 -1.77,89.95 -3.53,149.93 -1.77,59.97 -5.29,130.52 59.97,165.8z"/>
   <path id="1" class="fil3" d="M2179.36 9538.29c65.26,35.28 199.32,35.28 305.15,17.64 105.83,-17.64 183.45,-52.91 242,-97.13 58.54,-44.22 98.01,-97.37 122.4,-178.66 24.39,-81.29 33.68,-190.71 45.7,-317.59 12.01,-126.88 26.73,-271.22 27.04,-373.37 0.31,-102.16 -13.81,-162.14 -61.43,-200.94 -47.63,-38.81 -128.76,-56.45 -218.72,-75.85 -89.96,-19.41 -188.74,-40.57 -264.59,-51.15 -75.85,-10.59 -128.76,-10.59 -155.22,-1.77 -26.46,8.82 -26.46,26.46 -37.04,128.77 -10.59,102.3 -31.75,289.28 -42.33,425.1 -10.59,135.82 -10.59,220.48 -12.35,278.69 -1.77,58.21 -5.29,89.96 -7.05,130.53 -1.77,40.57 -1.77,89.95 -3.53,149.93 -1.77,59.97 -5.29,130.52 59.97,165.8z"/>
  </g>
  <g>
   <path class="fil0 str5" d="M2478.51 7693.96c-19.4,-111.13 -50.8,-279.92 -61.2,-447.22 -10.41,-167.31 0.18,-333.11 38.99,-454.82 38.8,-121.71 105.82,-199.32 179.91,-246.94 74.08,-47.63 155.22,-65.27 238.13,-35.28 82.9,29.98 167.56,107.59 211.66,215.19 44.1,107.59 47.62,245.18 47.62,388.06 0,142.87 -3.52,291.03 -16.45,415.98 -12.94,124.94 -35.29,226.66 -36.73,280.27 -1.45,53.6 18,59.09 -7.87,84.08 -25.87,24.99 -97.06,69.47 -197.92,75.84 -100.86,6.37 -231.39,-25.38 -300.36,-67.98 -68.97,-42.6 -76.38,-96.06 -95.78,-207.18z"/>
   <path id="1" class="fil4" d="M2478.51 7693.96c-19.4,-111.13 -50.8,-279.92 -61.2,-447.22 -10.41,-167.31 0.18,-333.11 38.99,-454.82 38.8,-121.71 105.82,-199.32 179.91,-246.94 74.08,-47.63 155.22,-65.27 238.13,-35.28 82.9,29.98 167.56,107.59 211.66,215.19 44.1,107.59 47.62,245.18 47.62,388.06 0,142.87 -3.52,291.03 -16.45,415.98 -12.94,124.94 -35.29,226.66 -36.73,280.27 -1.45,53.6 18,59.09 -7.87,84.08 -25.87,24.99 -97.06,69.47 -197.92,75.84 -100.86,6.37 -231.39,-25.38 -300.36,-67.98 -68.97,-42.6 -76.38,-96.06 -95.78,-207.18z"/>
  </g>
  <g>
   <path class="fil0 str5" d="M2015.71 7649.24c-67.42,-26.53 -166.2,-51.23 -257.92,-52.99 -91.73,-1.76 -176.39,19.4 -243.42,58.21 -67.03,38.8 -116.41,95.25 -141.1,153.46 -24.7,58.2 -24.7,118.18 -24.7,179.92 0,61.73 0,125.23 38.81,183.44 38.8,58.21 116.41,111.12 218.72,141.11 102.3,29.99 229.3,37.04 336.02,24.4 106.71,-12.64 193.14,-44.98 240.77,-124.35 47.62,-79.38 56.44,-205.79 45.37,-293.62 -11.08,-87.83 -42.06,-137.09 -75.57,-175.89 -33.51,-38.81 -69.57,-67.17 -136.98,-93.69z"/>
   <path id="1" class="fil4" d="M2015.71 7649.24c-67.42,-26.53 -166.2,-51.23 -257.92,-52.99 -91.73,-1.76 -176.39,19.4 -243.42,58.21 -67.03,38.8 -116.41,95.25 -141.1,153.46 -24.7,58.2 -24.7,118.18 -24.7,179.92 0,61.73 0,125.23 38.81,183.44 38.8,58.21 116.41,111.12 218.72,141.11 102.3,29.99 229.3,37.04 336.02,24.4 106.71,-12.64 193.14,-44.98 240.77,-124.35 47.62,-79.38 56.44,-205.79 45.37,-293.62 -11.08,-87.83 -42.06,-137.09 -75.57,-175.89 -33.51,-38.81 -69.57,-67.17 -136.98,-93.69z"/>
  </g>
  <g>
   <path class="fil0 str5" d="M1470.28 9781.71c89.96,31.75 238.12,38.8 342.19,24.69 104.07,-14.11 164.04,-49.38 208.7,-109.67 44.66,-60.29 74.01,-145.59 88.1,-216.29 14.09,-70.71 12.92,-126.81 -29.97,-174.12 -42.9,-47.31 -127.53,-85.82 -212.2,-107.3 -84.67,-21.48 -169.38,-25.92 -239.93,-20.63 -70.56,5.29 -126.96,20.32 -172.79,49 -45.84,28.68 -81.12,71.02 -102.28,115.12 -21.17,44.09 -28.23,89.95 -31.75,139.34 -3.53,49.39 -3.53,102.3 12.35,156.98 15.87,54.68 47.62,111.13 137.58,142.88z"/>
   <path id="1" class="fil4" d="M1470.28 9781.71c89.96,31.75 238.12,38.8 342.19,24.69 104.07,-14.11 164.04,-49.38 208.7,-109.67 44.66,-60.29 74.01,-145.59 88.1,-216.29 14.09,-70.71 12.92,-126.81 -29.97,-174.12 -42.9,-47.31 -127.53,-85.82 -212.2,-107.3 -84.67,-21.48 -169.38,-25.92 -239.93,-20.63 -70.56,5.29 -126.96,20.32 -172.79,49 -45.84,28.68 -81.12,71.02 -102.28,115.12 -21.17,44.09 -28.23,89.95 -31.75,139.34 -3.53,49.39 -3.53,102.3 12.35,156.98 15.87,54.68 47.62,111.13 137.58,142.88z"/>
  </g>
  <g>
   <path class="fil0 str5" d="M2029.94 8657.17c31.97,102.63 67.99,199.02 41.52,288.29 -26.47,89.27 -115.41,171.42 -228.67,217.22 -113.26,45.8 -250.84,55.25 -367.24,11.85 -116.41,-43.41 -211.66,-139.69 -259.28,-233.68 -47.62,-94 -47.62,-185.73 -33.51,-268.63 14.11,-82.9 42.34,-156.99 93.49,-206.37 51.15,-49.39 125.24,-74.09 240.04,-91.48 114.8,-17.39 270.31,-27.49 362.04,21.9 91.72,49.39 119.64,158.26 151.61,260.9z"/>
   <path id="1" class="fil4" d="M2029.94 8657.17c31.97,102.63 67.99,199.02 41.52,288.29 -26.47,89.27 -115.41,171.42 -228.67,217.22 -113.26,45.8 -250.84,55.25 -367.24,11.85 -116.41,-43.41 -211.66,-139.69 -259.28,-233.68 -47.62,-94 -47.62,-185.73 -33.51,-268.63 14.11,-82.9 42.34,-156.99 93.49,-206.37 51.15,-49.39 125.24,-74.09 240.04,-91.48 114.8,-17.39 270.31,-27.49 362.04,21.9 91.72,49.39 119.64,158.26 151.61,260.9z"/>
  </g>
  <g>
   <path class="fil0 str5" d="M10506.69 4453c-74.09,-65.26 -144.64,-234.6 -213.43,-403.93 -68.8,-169.33 -135.82,-338.67 -160.51,-488.6 -24.7,-149.93 -7.07,-280.46 42.32,-372.18 49.39,-91.73 130.53,-144.64 209.91,-158.75 79.37,-14.11 156.98,10.58 220.48,63.5 63.5,52.92 112.89,134.05 160.52,264.58 47.62,130.53 93.48,310.44 121.7,469.19 28.22,158.75 38.81,296.34 44.1,365.13 5.29,68.79 5.29,68.79 -28.22,98.78 -33.52,29.98 -100.54,89.96 -172.86,139.35 -72.32,49.39 -149.93,88.19 -224.01,22.93z"/>
   <path id="1" class="fil4" d="M10506.69 4453c-74.09,-65.26 -144.64,-234.6 -213.43,-403.93 -68.8,-169.33 -135.82,-338.67 -160.51,-488.6 -24.7,-149.93 -7.07,-280.46 42.32,-372.18 49.39,-91.73 130.53,-144.64 209.91,-158.75 79.37,-14.11 156.98,10.58 220.48,63.5 63.5,52.92 112.89,134.05 160.52,264.58 47.62,130.53 93.48,310.44 121.7,469.19 28.22,158.75 38.81,296.34 44.1,365.13 5.29,68.79 5.29,68.79 -28.22,98.78 -33.52,29.98 -100.54,89.96 -172.86,139.35 -72.32,49.39 -149.93,88.19 -224.01,22.93z"/>
  </g>
  <g>
   <path class="fil0 str5" d="M11321.61 3862.1c56.44,-211.67 190.49,-546.81 324.55,-791.99 134.05,-245.18 268.11,-400.41 361.6,-469.2 93.48,-68.79 146.39,-51.15 202.84,-12.34 56.44,38.8 116.42,98.78 148.17,211.67 31.75,112.88 35.27,278.69 17.64,419.8 -17.64,141.11 -56.45,257.52 -139.35,398.64 -82.9,141.11 -209.9,306.91 -354.54,437.44 -144.64,130.53 -306.92,225.78 -405.7,252.24 -98.78,26.46 -134.05,-15.88 -162.27,-81.14 -28.23,-65.26 -49.39,-153.46 7.06,-365.12z"/>
   <path id="1" class="fil4" d="M11321.61 3862.1c56.44,-211.67 190.49,-546.81 324.55,-791.99 134.05,-245.18 268.11,-400.41 361.6,-469.2 93.48,-68.79 146.39,-51.15 202.84,-12.34 56.44,38.8 116.42,98.78 148.17,211.67 31.75,112.88 35.27,278.69 17.64,419.8 -17.64,141.11 -56.45,257.52 -139.35,398.64 -82.9,141.11 -209.9,306.91 -354.54,437.44 -144.64,130.53 -306.92,225.78 -405.7,252.24 -98.78,26.46 -134.05,-15.88 -162.27,-81.14 -28.23,-65.26 -49.39,-153.46 7.06,-365.12z"/>
  </g>
  <g>
   <path class="fil0 str5" d="M11877.23 4569.42c37.04,-132.3 146.4,-315.74 306.92,-520.35 160.51,-204.62 372.17,-430.39 509.76,-559.15 137.58,-128.77 201.08,-160.52 271.64,-148.17 70.55,12.34 148.16,68.79 192.26,172.86 44.09,104.07 54.68,255.76 29.99,407.46 -24.7,151.69 -84.67,303.39 -178.15,430.39 -93.49,127 -220.49,229.3 -351.02,333.37 -130.53,104.07 -264.58,209.91 -349.25,266.35 -84.67,56.44 -119.94,63.5 -178.15,40.57 -58.21,-22.94 -139.35,-75.85 -197.56,-142.88 -58.21,-67.03 -93.48,-148.16 -56.44,-280.45z"/>
   <path id="1" class="fil4" d="M11877.23 4569.42c37.04,-132.3 146.4,-315.74 306.92,-520.35 160.51,-204.62 372.17,-430.39 509.76,-559.15 137.58,-128.77 201.08,-160.52 271.64,-148.17 70.55,12.34 148.16,68.79 192.26,172.86 44.09,104.07 54.68,255.76 29.99,407.46 -24.7,151.69 -84.67,303.39 -178.15,430.39 -93.49,127 -220.49,229.3 -351.02,333.37 -130.53,104.07 -264.58,209.91 -349.25,266.35 -84.67,56.44 -119.94,63.5 -178.15,40.57 -58.21,-22.94 -139.35,-75.85 -197.56,-142.88 -58.21,-67.03 -93.48,-148.16 -56.44,-280.45z"/>
  </g>
  <g>
   <path class="fil0 str5" d="M12386.99 5204.42c56.44,-114.66 197.56,-195.8 345.73,-292.81 148.16,-97.02 303.38,-209.9 423.33,-273.4 119.94,-63.5 204.6,-77.62 275.82,-56.45 71.22,21.17 129,77.61 144.88,208.14 15.87,130.53 -10.16,335.14 -91.96,472.73 -81.8,137.58 -219.39,208.13 -395.77,271.63 -176.39,63.5 -391.59,119.95 -515.06,132.3 -123.47,12.34 -155.22,-19.41 -185.2,-109.37 -29.99,-89.96 -58.22,-238.12 -1.77,-352.77z"/>
   <path id="1" class="fil4" d="M12386.99 5204.42c56.44,-114.66 197.56,-195.8 345.73,-292.81 148.16,-97.02 303.38,-209.9 423.33,-273.4 119.94,-63.5 204.6,-77.62 275.82,-56.45 71.22,21.17 129,77.61 144.88,208.14 15.87,130.53 -10.16,335.14 -91.96,472.73 -81.8,137.58 -219.39,208.13 -395.77,271.63 -176.39,63.5 -391.59,119.95 -515.06,132.3 -123.47,12.34 -155.22,-19.41 -185.2,-109.37 -29.99,-89.96 -58.22,-238.12 -1.77,-352.77z"/>
  </g>
  <g>
   <path class="fil0 str6" d="M9674.79 6788.9c-51.16,-98.78 -108.81,-212.8 -127.05,-372.12 -18.25,-159.32 2.91,-363.93 85.82,-593.23 82.9,-229.31 227.54,-483.31 354.54,-689.68 127,-206.38 236.36,-365.14 363.36,-525.65 127,-160.52 271.64,-322.79 403.93,-456.84 132.29,-134.06 252.24,-239.9 328.09,-303.4 75.84,-63.5 107.59,-84.66 139.93,-75.25 32.34,9.4 65.27,49.39 76.09,99.86 10.81,50.47 -0.49,111.42 23.62,165.52 24.1,54.09 83.61,101.31 151,127.59 67.38,26.28 142.63,31.62 180.26,34.29 37.63,2.66 37.63,2.66 37.63,2.66 0,0 0,0 22.35,7.92 22.34,7.91 67.02,23.75 111.55,53.39 44.52,29.64 88.89,73.09 95.58,151.05 6.68,77.95 -24.3,190.4 34.07,285.68 58.37,95.28 206.09,173.39 295.02,201.71 88.92,28.31 119.03,6.83 134.09,-3.9 15.06,-10.74 15.06,-10.74 28.08,23.1 13.02,33.83 39.06,101.5 52.08,135.34 13.02,33.83 13.02,33.83 -5.91,63.54 -18.93,29.71 -56.8,89.12 -40.78,185.09 16.02,95.96 85.92,228.48 146.16,300.32 60.23,71.84 110.79,83.01 141.37,93.89 30.57,10.87 41.16,21.46 42.92,62.03 1.76,40.57 -5.29,111.12 -104.07,283.99 -98.78,172.86 -289.28,448.02 -525.64,703.79 -236.36,255.76 -518.59,492.12 -756.71,664.98 -238.13,172.86 -432.15,282.22 -541.51,338.67 -109.36,56.44 -134.06,59.97 -199.32,21.17 -65.26,-38.81 -171.1,-119.95 -312.21,-246.95 -141.11,-127 -317.5,-299.86 -428.02,-428.05 -110.52,-128.2 -155.17,-211.73 -206.32,-310.51z"/>
   <path id="1" class="fil2" d="M9674.79 6788.9c-51.16,-98.78 -108.81,-212.8 -127.05,-372.12 -18.25,-159.32 2.91,-363.93 85.82,-593.23 82.9,-229.31 227.54,-483.31 354.54,-689.68 127,-206.38 236.36,-365.14 363.36,-525.65 127,-160.52 271.64,-322.79 403.93,-456.84 132.29,-134.06 252.24,-239.9 328.09,-303.4 75.84,-63.5 107.59,-84.66 139.93,-75.25 32.34,9.4 65.27,49.39 76.09,99.86 10.81,50.47 -0.49,111.42 23.62,165.52 24.1,54.09 83.61,101.31 151,127.59 67.38,26.28 142.63,31.62 180.26,34.29 37.63,2.66 37.63,2.66 37.63,2.66 0,0 0,0 22.35,7.92 22.34,7.91 67.02,23.75 111.55,53.39 44.52,29.64 88.89,73.09 95.58,151.05 6.68,77.95 -24.3,190.4 34.07,285.68 58.37,95.28 206.09,173.39 295.02,201.71 88.92,28.31 119.03,6.83 134.09,-3.9 15.06,-10.74 15.06,-10.74 28.08,23.1 13.02,33.83 39.06,101.5 52.08,135.34 13.02,33.83 13.02,33.83 -5.91,63.54 -18.93,29.71 -56.8,89.12 -40.78,185.09 16.02,95.96 85.92,228.48 146.16,300.32 60.23,71.84 110.79,83.01 141.37,93.89 30.57,10.87 41.16,21.46 42.92,62.03 1.76,40.57 -5.29,111.12 -104.07,283.99 -98.78,172.86 -289.28,448.02 -525.64,703.79 -236.36,255.76 -518.59,492.12 -756.71,664.98 -238.13,172.86 -432.15,282.22 -541.51,338.67 -109.36,56.44 -134.06,59.97 -199.32,21.17 -65.26,-38.81 -171.1,-119.95 -312.21,-246.95 -141.11,-127 -317.5,-299.86 -428.02,-428.05 -110.52,-128.2 -155.17,-211.73 -206.32,-310.51z"/>
  </g>
  <g>
   <path class="fil0 str4" d="M10653.09 5292.61c-29.99,61.74 -37.04,149.93 52.92,306.92 89.95,156.99 276.93,382.76 384.53,516.82 107.59,134.05 135.81,176.39 171.09,208.14 35.27,31.75 77.61,52.91 132.29,33.51 54.68,-19.4 121.71,-79.38 222.25,-144.64 100.54,-65.26 234.6,-135.82 329.85,-211.66 95.25,-75.85 151.69,-156.99 153.46,-255.77 1.76,-98.78 -51.15,-215.19 -160.51,-365.12 -109.37,-149.94 -275.17,-333.38 -403.93,-472.73 -128.77,-139.35 -220.5,-234.6 -294.58,-269.87 -74.08,-35.28 -130.53,-10.59 -171.09,14.11 -40.57,24.69 -65.27,49.39 -109.36,134.06 -44.1,84.66 -107.6,229.3 -165.81,319.26 -58.21,89.96 -111.12,125.23 -141.11,186.97z"/>
   <path id="1" class="fil3" d="M10653.09 5292.61c-29.99,61.74 -37.04,149.93 52.92,306.92 89.95,156.99 276.93,382.76 384.53,516.82 107.59,134.05 135.81,176.39 171.09,208.14 35.27,31.75 77.61,52.91 132.29,33.51 54.68,-19.4 121.71,-79.38 222.25,-144.64 100.54,-65.26 234.6,-135.82 329.85,-211.66 95.25,-75.85 151.69,-156.99 153.46,-255.77 1.76,-98.78 -51.15,-215.19 -160.51,-365.12 -109.37,-149.94 -275.17,-333.38 -403.93,-472.73 -128.77,-139.35 -220.5,-234.6 -294.58,-269.87 -74.08,-35.28 -130.53,-10.59 -171.09,14.11 -40.57,24.69 -65.27,49.39 -109.36,134.06 -44.1,84.66 -107.6,229.3 -165.81,319.26 -58.21,89.96 -111.12,125.23 -141.11,186.97z"/>
  </g>
  <g>
   <path class="fil0 str5" d="M11693.78 5299.67c15.87,29.99 89.96,114.65 149.93,206.38 59.97,91.72 105.84,190.49 138.28,255.78 32.44,65.29 51.45,97.08 42.63,49.46 -8.82,-47.63 -45.47,-174.67 -93.78,-269.94 -48.32,-95.28 -108.3,-158.78 -159.45,-202.87 -51.15,-44.1 -93.49,-68.8 -77.61,-38.81z"/>
   <path id="1" class="fil4" d="M11693.78 5299.67c15.87,29.99 89.96,114.65 149.93,206.38 59.97,91.72 105.84,190.49 138.28,255.78 32.44,65.29 51.45,97.08 42.63,49.46 -8.82,-47.63 -45.47,-174.67 -93.78,-269.94 -48.32,-95.28 -108.3,-158.78 -159.45,-202.87 -51.15,-44.1 -93.49,-68.8 -77.61,-38.81z"/>
  </g>
  <g>
   <path class="fil0 str6" d="M7233.66 10203.48c96.24,-74.06 209.14,-203.77 299.11,-337.41 89.97,-133.64 156.99,-271.23 190.51,-340.02 33.51,-68.79 33.51,-68.79 31.75,-171.09 -1.77,-102.31 -5.29,-306.92 -19.4,-499.18 -14.11,-192.27 -38.81,-372.19 -19.4,-566.22 19.4,-194.03 82.9,-402.16 114.65,-506.23 31.75,-104.07 31.75,-104.07 -306.48,-122.86 -338.23,-18.79 -1014.7,-56.38 -1572.53,-66.52 -557.84,-10.14 -997.04,7.17 -1150.93,168.84 -153.9,161.66 -22.49,467.69 30.88,761.82 53.36,294.12 28.66,576.35 87.16,852.47 58.49,276.12 200.18,546.14 293.27,695.41 93.09,149.27 137.59,177.78 175.46,199.17 37.86,21.38 69.09,35.63 104.76,22.18 35.67,-13.45 75.79,-54.6 94.08,-131.62 18.29,-77.02 14.77,-189.9 28.88,-271.04 14.11,-81.14 45.86,-130.53 135.82,-149.93 89.96,-19.41 238.12,-8.82 379.24,-8.82 141.11,0 275.16,-10.59 382.76,-14.11 107.6,-3.53 188.73,-0.01 241.65,29.98 52.92,29.99 77.61,86.43 91.06,190.91 13.45,104.48 15.65,256.98 35.83,327.52 20.18,70.53 58.34,59.09 117.21,44.16 58.86,-14.93 138.42,-33.35 234.66,-107.41z"/>
   <path id="1" class="fil2" d="M7233.66 10203.48c96.24,-74.06 209.14,-203.77 299.11,-337.41 89.97,-133.64 156.99,-271.23 190.51,-340.02 33.51,-68.79 33.51,-68.79 31.75,-171.09 -1.77,-102.31 -5.29,-306.92 -19.4,-499.18 -14.11,-192.27 -38.81,-372.19 -19.4,-566.22 19.4,-194.03 82.9,-402.16 114.65,-506.23 31.75,-104.07 31.75,-104.07 -306.48,-122.86 -338.23,-18.79 -1014.7,-56.38 -1572.53,-66.52 -557.84,-10.14 -997.04,7.17 -1150.93,168.84 -153.9,161.66 -22.49,467.69 30.88,761.82 53.36,294.12 28.66,576.35 87.16,852.47 58.49,276.12 200.18,546.14 293.27,695.41 93.09,149.27 137.59,177.78 175.46,199.17 37.86,21.38 69.09,35.63 104.76,22.18 35.67,-13.45 75.79,-54.6 94.08,-131.62 18.29,-77.02 14.77,-189.9 28.88,-271.04 14.11,-81.14 45.86,-130.53 135.82,-149.93 89.96,-19.41 238.12,-8.82 379.24,-8.82 141.11,0 275.16,-10.59 382.76,-14.11 107.6,-3.53 188.73,-0.01 241.65,29.98 52.92,29.99 77.61,86.43 91.06,190.91 13.45,104.48 15.65,256.98 35.83,327.52 20.18,70.53 58.34,59.09 117.21,44.16 58.86,-14.93 138.42,-33.35 234.66,-107.41z"/>
  </g>
  <g>
   <path class="fil0 str0" d="M5568.68 8131.26c22.93,73.64 56.45,199.75 134.06,316.61 77.61,116.86 199.32,224.45 290.6,306.48 91.28,82.02 152.14,138.46 182.57,168.45 30.42,29.99 30.42,33.51 29.1,114.21 -1.33,80.7 -3.97,238.57 -3.99,367.18 -0.03,128.61 2.56,227.96 3.86,277.64 1.3,49.67 1.3,49.67 16.69,49.14 15.39,-0.53 46.18,-1.58 61.57,-2.11 15.39,-0.53 15.39,-0.53 16.34,-69.96 0.95,-69.43 2.85,-208.3 1.16,-339.46 -1.7,-131.17 -7,-254.65 -7.88,-319.47 -0.88,-64.82 2.65,-71 52.92,-97.9 50.27,-26.9 147.29,-74.52 254.89,-167.12 107.59,-92.61 225.77,-230.2 288.83,-296.78 63.06,-66.59 70.99,-62.18 96.57,-109.36 25.58,-47.19 68.79,-145.96 95.69,-204.61 26.9,-58.65 37.49,-77.17 42.78,-86.43 5.29,-9.26 5.29,-9.26 -43.21,-13.23 -48.51,-3.97 -145.53,-11.91 -335.14,-12.79 -189.62,-0.89 -471.85,5.29 -683.51,3.09 -211.67,-2.21 -352.79,-12.8 -431.28,-14.12 -78.49,-1.32 -94.37,6.62 -96.13,21.18 -1.76,14.55 10.58,35.71 33.51,109.36z"/>
   <path id="1" class="fil1" d="M5568.68 8131.26c22.93,73.64 56.45,199.75 134.06,316.61 77.61,116.86 199.32,224.45 290.6,306.48 91.28,82.02 152.14,138.46 182.57,168.45 30.42,29.99 30.42,33.51 29.1,114.21 -1.33,80.7 -3.97,238.57 -3.99,367.18 -0.03,128.61 2.56,227.96 3.86,277.64 1.3,49.67 1.3,49.67 16.69,49.14 15.39,-0.53 46.18,-1.58 61.57,-2.11 15.39,-0.53 15.39,-0.53 16.34,-69.96 0.95,-69.43 2.85,-208.3 1.16,-339.46 -1.7,-131.17 -7,-254.65 -7.88,-319.47 -0.88,-64.82 2.65,-71 52.92,-97.9 50.27,-26.9 147.29,-74.52 254.89,-167.12 107.59,-92.61 225.77,-230.2 288.83,-296.78 63.06,-66.59 70.99,-62.18 96.57,-109.36 25.58,-47.19 68.79,-145.96 95.69,-204.61 26.9,-58.65 37.49,-77.17 42.78,-86.43 5.29,-9.26 5.29,-9.26 -43.21,-13.23 -48.51,-3.97 -145.53,-11.91 -335.14,-12.79 -189.62,-0.89 -471.85,5.29 -683.51,3.09 -211.67,-2.21 -352.79,-12.8 -431.28,-14.12 -78.49,-1.32 -94.37,6.62 -96.13,21.18 -1.76,14.55 10.58,35.71 33.51,109.36z"/>
  </g>
  <g>
   <path class="fil0 str4" d="M5072.59 8316.86c-7.11,70.4 -6.87,183.4 9.12,250.49 15.99,67.08 47.74,88.24 106.83,109.41 59.09,21.17 145.52,42.33 203.73,37.92 58.21,-4.41 88.19,-34.39 103.19,-64.38 14.99,-29.99 14.99,-59.97 13.23,-131.41 -1.77,-71.44 -5.29,-184.33 -1.17,-274.07 4.12,-89.74 15.88,-156.33 14.21,-206.44 -1.68,-50.11 -16.81,-83.73 -92.36,-114.82 -75.56,-31.09 -211.55,-59.63 -276.27,-52.05 -64.72,7.58 -58.16,51.29 -53.7,110.54 4.45,59.24 6.8,134.02 0.76,185.31 -6.04,51.29 -20.47,79.1 -27.57,149.5z"/>
   <path id="1" class="fil3" d="M5072.59 8316.86c-7.11,70.4 -6.87,183.4 9.12,250.49 15.99,67.08 47.74,88.24 106.83,109.41 59.09,21.17 145.52,42.33 203.73,37.92 58.21,-4.41 88.19,-34.39 103.19,-64.38 14.99,-29.99 14.99,-59.97 13.23,-131.41 -1.77,-71.44 -5.29,-184.33 -1.17,-274.07 4.12,-89.74 15.88,-156.33 14.21,-206.44 -1.68,-50.11 -16.81,-83.73 -92.36,-114.82 -75.56,-31.09 -211.55,-59.63 -276.27,-52.05 -64.72,7.58 -58.16,51.29 -53.7,110.54 4.45,59.24 6.8,134.02 0.76,185.31 -6.04,51.29 -20.47,79.1 -27.57,149.5z"/>
  </g>
  <g>
   <path class="fil0 str4" d="M7158.57 8044.72c-24.7,95.25 -26.78,273.69 -27.82,399.07 -1.05,125.37 -1.05,197.69 32.47,236.5 33.51,38.8 100.54,44.09 167.57,38.8 67.03,-5.29 134.05,-21.17 175.5,-44.1 41.45,-22.93 57.33,-52.91 60.86,-115.53 3.52,-62.62 -5.29,-157.87 -8.82,-252.24 -3.53,-94.37 -1.76,-187.85 0.89,-279.57 2.64,-91.73 6.16,-181.68 7.93,-226.66 1.76,-44.98 1.76,-44.98 -46.74,-16.76 -48.51,28.22 -145.53,84.67 -217.68,118.93 -72.16,34.25 -119.47,46.31 -144.16,141.56z"/>
   <path id="1" class="fil3" d="M7158.57 8044.72c-24.7,95.25 -26.78,273.69 -27.82,399.07 -1.05,125.37 -1.05,197.69 32.47,236.5 33.51,38.8 100.54,44.09 167.57,38.8 67.03,-5.29 134.05,-21.17 175.5,-44.1 41.45,-22.93 57.33,-52.91 60.86,-115.53 3.52,-62.62 -5.29,-157.87 -8.82,-252.24 -3.53,-94.37 -1.76,-187.85 0.89,-279.57 2.64,-91.73 6.16,-181.68 7.93,-226.66 1.76,-44.98 1.76,-44.98 -46.74,-16.76 -48.51,28.22 -145.53,84.67 -217.68,118.93 -72.16,34.25 -119.47,46.31 -144.16,141.56z"/>
  </g>
  <g>
   <path class="fil0 str7" d="M7776.87 9434.83c61.73,-37.04 146.49,-82.71 229.44,-143.46 82.95,-60.76 164.09,-136.6 232.88,-234.49 68.79,-97.9 125.24,-217.85 151.89,-289.41 26.65,-71.57 23.5,-94.77 10.97,-101.58 -12.53,-6.82 -34.46,2.75 -62.77,15.55 -28.32,12.8 -63.04,28.83 -121.06,2.14 -58.02,-26.7 -139.35,-96.14 -184.42,-180.24 -45.08,-84.11 -53.9,-182.89 -59.19,-246.39 -5.29,-63.5 -7.06,-91.72 11.95,-138.4 19.01,-46.69 58.78,-111.85 96.07,-151.03 37.29,-39.19 72.1,-52.42 81.32,-70.99 9.21,-18.58 -7.17,-42.51 -53.28,-72.99 -46.11,-30.49 -121.95,-67.54 -172.71,-88.15 -45.82,-18.6 -71.19,-23.81 -103.49,-30.52 15.32,16.43 7.98,40.53 -3.59,78.46 -31.75,104.07 -95.25,312.2 -114.65,506.23 -19.41,194.03 5.29,373.95 19.4,566.22 14.11,192.26 17.63,396.87 19.4,499.18 0.83,48.18 1.26,73.66 -2.01,94.33 7.57,-4.6 15.5,-9.45 23.85,-14.46z"/>
   <path id="1" class="fil5" d="M7776.87 9434.83c61.73,-37.04 146.49,-82.71 229.44,-143.46 82.95,-60.76 164.09,-136.6 232.88,-234.49 68.79,-97.9 125.24,-217.85 151.89,-289.41 26.65,-71.57 23.5,-94.77 10.97,-101.58 -12.53,-6.82 -34.46,2.75 -62.77,15.55 -28.32,12.8 -63.04,28.83 -121.06,2.14 -58.02,-26.7 -139.35,-96.14 -184.42,-180.24 -45.08,-84.11 -53.9,-182.89 -59.19,-246.39 -5.29,-63.5 -7.06,-91.72 11.95,-138.4 19.01,-46.69 58.78,-111.85 96.07,-151.03 37.29,-39.19 72.1,-52.42 81.32,-70.99 9.21,-18.58 -7.17,-42.51 -53.28,-72.99 -46.11,-30.49 -121.95,-67.54 -172.71,-88.15 -45.82,-18.6 -71.19,-23.81 -103.49,-30.52 15.32,16.43 7.98,40.53 -3.59,78.46 -31.75,104.07 -95.25,312.2 -114.65,506.23 -19.41,194.03 5.29,373.95 19.4,566.22 14.11,192.26 17.63,396.87 19.4,499.18 0.83,48.18 1.26,73.66 -2.01,94.33 7.57,-4.6 15.5,-9.45 23.85,-14.46z"/>
  </g>
  <g>
   <path class="fil0 str7" d="M5068.8 7885.26c-30.6,-49.25 -91.78,-123.95 -142.33,-163.85 -50.56,-39.9 -90.47,-44.98 -144.82,-30.77 -54.36,14.21 -123.16,47.73 -196.36,126.22 -73.2,78.49 -150.81,201.97 -192.26,329.85 -41.45,127.88 -46.75,260.17 -38.81,371.3 7.94,111.12 29.1,201.08 89.08,309.56 59.97,108.48 158.75,235.48 232.5,306.03 73.74,70.55 122.44,84.65 154.63,90.08 32.19,5.42 47.87,2.16 56.15,-91.32 8.27,-93.48 9.16,-277.19 43.53,-453.06 34.36,-175.87 102.2,-343.91 136,-458.81 33.8,-114.9 33.54,-176.67 33.42,-219.44 -0.13,-42.78 -0.14,-66.55 -30.73,-115.79z"/>
   <path id="1" class="fil5" d="M5068.8 7885.26c-30.6,-49.25 -91.78,-123.95 -142.33,-163.85 -50.56,-39.9 -90.47,-44.98 -144.82,-30.77 -54.36,14.21 -123.16,47.73 -196.36,126.22 -73.2,78.49 -150.81,201.97 -192.26,329.85 -41.45,127.88 -46.75,260.17 -38.81,371.3 7.94,111.12 29.1,201.08 89.08,309.56 59.97,108.48 158.75,235.48 232.5,306.03 73.74,70.55 122.44,84.65 154.63,90.08 32.19,5.42 47.87,2.16 56.15,-91.32 8.27,-93.48 9.16,-277.19 43.53,-453.06 34.36,-175.87 102.2,-343.91 136,-458.81 33.8,-114.9 33.54,-176.67 33.42,-219.44 -0.13,-42.78 -0.14,-66.55 -30.73,-115.79z"/>
  </g>
  <g>
   <path class="fil0 str8" d="M3811.79 5046.65c28.22,407.46 119.95,1031.87 384.54,1573.39 264.58,541.51 702.02,1000.13 1058.33,1270.01 356.31,269.87 631.47,351 843.14,389.81 211.67,38.8 359.83,35.28 620.46,-72.84 260.62,-108.12 633.69,-320.83 921.21,-518.38 287.51,-197.56 489.46,-379.96 678.63,-601.69 189.17,-221.73 365.56,-482.78 459.05,-763.24 93.48,-280.46 104.07,-580.33 81.14,-948.98 -22.94,-368.65 -79.38,-806.1 -446.27,-1130.65 -366.89,-324.56 -1044.23,-536.22 -1615.73,-606.77 -571.5,-70.56 -1037.16,-0.01 -1509.88,126.99 -472.73,127 -952.5,310.45 -1210.03,497.42 -257.53,186.97 -292.81,377.47 -264.59,784.93z"/>
   <path id="1" class="fil6" d="M3811.79 5046.65c28.22,407.46 119.95,1031.87 384.54,1573.39 264.58,541.51 702.02,1000.13 1058.33,1270.01 356.31,269.87 631.47,351 843.14,389.81 211.67,38.8 359.83,35.28 620.46,-72.84 260.62,-108.12 633.69,-320.83 921.21,-518.38 287.51,-197.56 489.46,-379.96 678.63,-601.69 189.17,-221.73 365.56,-482.78 459.05,-763.24 93.48,-280.46 104.07,-580.33 81.14,-948.98 -22.94,-368.65 -79.38,-806.1 -446.27,-1130.65 -366.89,-324.56 -1044.23,-536.22 -1615.73,-606.77 -571.5,-70.56 -1037.16,-0.01 -1509.88,126.99 -472.73,127 -952.5,310.45 -1210.03,497.42 -257.53,186.97 -292.81,377.47 -264.59,784.93z"/>
  </g>
  <g>
   <path class="fil0 str8" d="M4409.76 4730.92c1.76,172.86 -12.35,479.77 17.64,710.84 29.98,231.07 104.07,386.3 291.04,536.23 186.97,149.93 486.83,294.56 813.15,380.99 326.32,86.43 679.09,114.66 1033.64,74.09 354.54,-40.57 710.84,-149.93 1000.12,-296.33 289.28,-146.41 511.53,-329.85 638.53,-481.54 127,-151.7 158.75,-271.65 164.04,-485.08 5.29,-213.43 -15.87,-520.34 -229.3,-726.71 -213.43,-206.38 -619.13,-312.22 -1125.36,-368.66 -506.24,-56.45 -1113.02,-63.5 -1569.87,12.35 -456.85,75.84 -763.76,234.59 -908.4,333.37 -144.64,98.78 -127,137.58 -125.23,310.45z"/>
   <path id="1" class="fil7" d="M4409.76 4730.92c1.76,172.86 -12.35,479.77 17.64,710.84 29.98,231.07 104.07,386.3 291.04,536.23 186.97,149.93 486.83,294.56 813.15,380.99 326.32,86.43 679.09,114.66 1033.64,74.09 354.54,-40.57 710.84,-149.93 1000.12,-296.33 289.28,-146.41 511.53,-329.85 638.53,-481.54 127,-151.7 158.75,-271.65 164.04,-485.08 5.29,-213.43 -15.87,-520.34 -229.3,-726.71 -213.43,-206.38 -619.13,-312.22 -1125.36,-368.66 -506.24,-56.45 -1113.02,-63.5 -1569.87,12.35 -456.85,75.84 -763.76,234.59 -908.4,333.37 -144.64,98.78 -127,137.58 -125.23,310.45z"/>
  </g>
  <g>
   <path class="fil0 str0" d="M4718.17 4584.36c-24.53,84.42 -72.45,217.9 -91.27,359.94 -18.82,142.03 -8.56,292.62 36.51,436.37 45.06,143.74 124.92,280.64 216.76,377.04 91.84,96.4 195.65,152.3 314.87,183.1 119.22,30.8 253.83,36.51 397.58,-21.67 143.74,-58.19 296.62,-180.26 398.16,-331.42 101.53,-151.16 151.72,-331.41 172.83,-564.71 21.11,-233.3 13.12,-519.65 -1.71,-676.51 -14.83,-156.87 -36.5,-184.25 -144.31,-197.94 -107.81,-13.69 -301.76,-13.69 -503.69,22.25 -201.93,35.93 -411.84,107.81 -541.32,156.87 -129.49,49.05 -178.55,75.28 -203.64,106.09 -25.1,30.8 -26.25,66.16 -50.77,150.59z"/>
   <path id="1" class="fil1" d="M4718.17 4584.36c-24.53,84.42 -72.45,217.9 -91.27,359.94 -18.82,142.03 -8.56,292.62 36.51,436.37 45.06,143.74 124.92,280.64 216.76,377.04 91.84,96.4 195.65,152.3 314.87,183.1 119.22,30.8 253.83,36.51 397.58,-21.67 143.74,-58.19 296.62,-180.26 398.16,-331.42 101.53,-151.16 151.72,-331.41 172.83,-564.71 21.11,-233.3 13.12,-519.65 -1.71,-676.51 -14.83,-156.87 -36.5,-184.25 -144.31,-197.94 -107.81,-13.69 -301.76,-13.69 -503.69,22.25 -201.93,35.93 -411.84,107.81 -541.32,156.87 -129.49,49.05 -178.55,75.28 -203.64,106.09 -25.1,30.8 -26.25,66.16 -50.77,150.59z"/>
  </g>
  <g>
   <path class="fil0 str9" d="M5165.38 4386.42c-64.46,70.16 -191.1,193.37 -271.52,311.45 -80.43,118.07 -114.66,231.02 -108.38,363.93 6.27,132.9 53.05,285.78 126.06,412.98 73.01,127.2 172.27,228.74 269.81,279.51 97.54,50.76 193.37,50.76 282.36,33.65 88.98,-17.11 171.12,-51.34 259.54,-135.19 88.41,-83.85 183.1,-217.33 230.45,-377.62 47.34,-160.29 47.34,-347.38 42.78,-494.55 -4.57,-147.17 -13.69,-254.4 -29.66,-339.96 -15.98,-85.57 -38.79,-149.45 -67.31,-185.96 -28.52,-36.51 -62.75,-45.63 -130.06,-45.63 -67.31,0 -167.7,9.12 -262.39,22.81 -94.69,13.69 -183.68,31.95 -229.31,49.63 -45.63,17.68 -47.92,34.79 -112.37,104.95z"/>
   <path id="1" class="fil8" d="M5165.38 4386.42c-64.46,70.16 -191.1,193.37 -271.52,311.45 -80.43,118.07 -114.66,231.02 -108.38,363.93 6.27,132.9 53.05,285.78 126.06,412.98 73.01,127.2 172.27,228.74 269.81,279.51 97.54,50.76 193.37,50.76 282.36,33.65 88.98,-17.11 171.12,-51.34 259.54,-135.19 88.41,-83.85 183.1,-217.33 230.45,-377.62 47.34,-160.29 47.34,-347.38 42.78,-494.55 -4.57,-147.17 -13.69,-254.4 -29.66,-339.96 -15.98,-85.57 -38.79,-149.45 -67.31,-185.96 -28.52,-36.51 -62.75,-45.63 -130.06,-45.63 -67.31,0 -167.7,9.12 -262.39,22.81 -94.69,13.69 -183.68,31.95 -229.31,49.63 -45.63,17.68 -47.92,34.79 -112.37,104.95z"/>
  </g>
  <g>
   <path class="fil9" d="M5880.56 4985.59l-17.6 0 0 0 -0.5 -24.21 -1.5 -23.89 -2.47 -23.54 -3.4 -23.16 -4.33 -22.74 -5.23 -22.3 -6.1 -21.84 -6.93 -21.34 -7.76 -20.81 -8.55 -20.25 -9.33 -19.65 -10.06 -19.04 -10.79 -18.39 -11.48 -17.71 -12.15 -17 -12.79 -16.27 -13.41 -15.5 -14 -14.71 -14.57 -13.88 -15.12 -13.03 -15.62 -12.15 -16.12 -11.24 -16.59 -10.3 -17.02 -9.33 -17.45 -8.34 -17.84 -7.31 -18.21 -6.28 -18.56 -5.2 -18.88 -4.09 -19.2 -2.95 -19.48 -1.8 -19.73 -0.6 0 -17.64 20.81 0.64 20.54 1.9 20.24 3.11 19.92 4.31 19.56 5.48 19.17 6.6 18.78 7.69 18.33 8.78 17.88 9.79 17.39 10.8 16.88 11.76 16.34 12.71 15.78 13.61 15.19 14.48 14.6 15.31 13.95 16.14 13.29 16.91 12.63 17.66 11.9 18.37 11.19 19.07 10.42 19.72 9.65 20.35 8.85 20.95 8.02 21.51 7.17 22.04 6.3 22.56 5.39 23.02 4.47 23.48 3.52 23.9 2.55 24.26 1.54 24.63 0.52 24.95 0 0zm-402.77 486.48l0 -17.64 0 0 19.73 -0.6 19.48 -1.8 19.2 -2.95 18.88 -4.09 18.56 -5.2 18.21 -6.28 17.84 -7.31 17.45 -8.34 17.02 -9.33 16.59 -10.3 16.12 -11.24 15.62 -12.15 15.12 -13.03 14.57 -13.88 14 -14.71 13.41 -15.5 12.79 -16.26 12.15 -17.01 11.48 -17.71 10.79 -18.39 10.06 -19.04 9.33 -19.65 8.55 -20.25 7.76 -20.81 6.93 -21.34 6.1 -21.83 5.23 -22.3 4.33 -22.75 3.4 -23.15 2.47 -23.54 1.5 -23.89 0.5 -24.21 17.6 0 -0.52 24.95 -1.54 24.63 -2.55 24.26 -3.52 23.89 -4.47 23.47 -5.39 23.04 -6.3 22.55 -7.17 22.04 -8.02 21.51 -8.85 20.95 -9.65 20.35 -10.42 19.72 -11.19 19.07 -11.9 18.37 -12.63 17.67 -13.29 16.9 -13.95 16.14 -14.6 15.31 -15.19 14.48 -15.78 13.61 -16.34 12.71 -16.88 11.76 -17.39 10.8 -17.88 9.79 -18.33 8.78 -18.78 7.69 -19.17 6.6 -19.56 5.48 -19.92 4.31 -20.24 3.11 -20.54 1.9 -20.81 0.64 0 0zm-402.78 -486.48l17.6 0 0 0 0.5 24.21 1.5 23.89 2.47 23.54 3.4 23.15 4.33 22.75 5.23 22.3 6.1 21.83 6.93 21.34 7.76 20.81 8.55 20.25 9.33 19.65 10.07 19.04 10.78 18.39 11.49 17.71 12.14 17.01 12.79 16.26 13.42 15.5 13.99 14.71 14.58 13.88 15.11 13.03 15.63 12.15 16.12 11.24 16.58 10.3 17.02 9.33 17.46 8.34 17.83 7.31 18.22 6.28 18.56 5.2 18.88 4.09 19.2 2.95 19.48 1.8 19.73 0.6 0 17.64 -20.81 -0.64 -20.54 -1.9 -20.24 -3.11 -19.92 -4.31 -19.56 -5.48 -19.18 -6.6 -18.77 -7.69 -18.34 -8.78 -17.88 -9.79 -17.38 -10.8 -16.88 -11.76 -16.35 -12.71 -15.77 -13.61 -15.2 -14.48 -14.59 -15.31 -13.96 -16.14 -13.29 -16.9 -12.62 -17.67 -11.91 -18.37 -11.18 -19.07 -10.43 -19.72 -9.65 -20.35 -8.85 -20.95 -8.02 -21.51 -7.17 -22.04 -6.3 -22.55 -5.39 -23.04 -4.47 -23.47 -3.52 -23.89 -2.55 -24.26 -1.54 -24.63 -0.52 -24.95 0 0zm402.78 -486.49l0 17.64 0 0 -19.73 0.6 -19.48 1.8 -19.2 2.95 -18.88 4.09 -18.56 5.2 -18.22 6.28 -17.83 7.31 -17.46 8.34 -17.02 9.33 -16.58 10.3 -16.12 11.24 -15.63 12.15 -15.11 13.03 -14.58 13.88 -13.99 14.71 -13.42 15.5 -12.79 16.27 -12.14 17 -11.49 17.71 -10.78 18.39 -10.07 19.04 -9.33 19.65 -8.55 20.25 -7.76 20.81 -6.93 21.34 -6.1 21.84 -5.23 22.3 -4.33 22.74 -3.4 23.16 -2.47 23.54 -1.5 23.89 -0.5 24.21 -17.6 0 0.52 -24.95 1.54 -24.63 2.55 -24.26 3.52 -23.9 4.47 -23.48 5.39 -23.02 6.3 -22.56 7.17 -22.04 8.02 -21.51 8.85 -20.95 9.65 -20.35 10.43 -19.72 11.18 -19.07 11.91 -18.37 12.62 -17.66 13.29 -16.91 13.96 -16.14 14.59 -15.31 15.2 -14.48 15.77 -13.61 16.35 -12.71 16.88 -11.76 17.38 -10.8 17.88 -9.79 18.34 -8.78 18.77 -7.69 19.18 -6.6 19.56 -5.48 19.92 -4.31 20.24 -3.11 20.54 -1.9 20.81 -0.64 0 0z"/>
   <path id="1" class="fil4" d="M5477.79 4507.92c217.58,0 393.97,213.86 393.97,477.67 0,263.8 -176.39,477.66 -393.97,477.66 -217.59,0 -393.98,-213.86 -393.98,-477.66 0,-263.81 176.39,-477.67 393.98,-477.67z"/>
  </g>
  <g>
   <path class="fil0 str0" d="M6404.94 4390.78c-7.17,192.95 -3.83,578.52 31.47,837.46 35.3,258.93 102.55,391.23 179.72,495.96 77.17,104.73 164.26,181.9 264.03,239.23 99.77,57.32 212.22,94.81 331.29,95.91 119.06,1.1 244.74,-34.17 367.11,-112.99 122.37,-78.83 241.44,-201.2 327.43,-357.74 85.99,-156.55 138.9,-347.28 142.21,-520.91 3.31,-173.64 -43,-330.18 -91.05,-435.79 -48.05,-105.62 -97.84,-160.3 -168.12,-204.04 -70.28,-43.74 -161.04,-76.53 -283.29,-108.96 -122.25,-32.43 -275.98,-64.48 -404.63,-84.39 -128.65,-19.91 -232.2,-27.66 -321.53,-32.01 -89.33,-4.36 -164.42,-5.3 -217.4,-5.62 -52.99,-0.32 -83.86,-0.02 -108.13,0.3 -24.28,0.31 -41.95,0.64 -49.11,193.59z"/>
   <path id="1" class="fil1" d="M6404.94 4390.78c-7.17,192.95 -3.83,578.52 31.47,837.46 35.3,258.93 102.55,391.23 179.72,495.96 77.17,104.73 164.26,181.9 264.03,239.23 99.77,57.32 212.22,94.81 331.29,95.91 119.06,1.1 244.74,-34.17 367.11,-112.99 122.37,-78.83 241.44,-201.2 327.43,-357.74 85.99,-156.55 138.9,-347.28 142.21,-520.91 3.31,-173.64 -43,-330.18 -91.05,-435.79 -48.05,-105.62 -97.84,-160.3 -168.12,-204.04 -70.28,-43.74 -161.04,-76.53 -283.29,-108.96 -122.25,-32.43 -275.98,-64.48 -404.63,-84.39 -128.65,-19.91 -232.2,-27.66 -321.53,-32.01 -89.33,-4.36 -164.42,-5.3 -217.4,-5.62 -52.99,-0.32 -83.86,-0.02 -108.13,0.3 -24.28,0.31 -41.95,0.64 -49.11,193.59z"/>
  </g>
  <g>
   <path class="fil0 str9" d="M6638.23 4280.21c-26.52,81.75 -57.38,245.82 -61.79,445.27 -4.41,199.45 17.64,434.27 73.32,611.21 55.67,176.94 144.96,296.01 254.11,379.8 109.14,83.78 238.12,132.28 356.64,128.98 118.51,-3.31 226.55,-58.43 324.67,-148.83 98.11,-90.4 186.31,-216.08 235.92,-358.84 49.61,-142.77 60.63,-302.63 7.16,-473.79 -53.48,-171.16 -171.47,-353.63 -242.01,-447.93 -70.55,-94.3 -93.66,-100.42 -144.29,-112.1 -50.63,-11.68 -128.77,-28.9 -207.53,-43.78 -78.77,-14.88 -158.16,-27.42 -228.14,-36.32 -69.99,-8.91 -130.58,-14.2 -178.54,-17.63 -47.97,-3.44 -83.32,-5.04 -112.07,-6.12 -28.76,-1.09 -50.93,-1.67 -77.45,80.08z"/>
   <path id="1" class="fil8" d="M6638.23 4280.21c-26.52,81.75 -57.38,245.82 -61.79,445.27 -4.41,199.45 17.64,434.27 73.32,611.21 55.67,176.94 144.96,296.01 254.11,379.8 109.14,83.78 238.12,132.28 356.64,128.98 118.51,-3.31 226.55,-58.43 324.67,-148.83 98.11,-90.4 186.31,-216.08 235.92,-358.84 49.61,-142.77 60.63,-302.63 7.16,-473.79 -53.48,-171.16 -171.47,-353.63 -242.01,-447.93 -70.55,-94.3 -93.66,-100.42 -144.29,-112.1 -50.63,-11.68 -128.77,-28.9 -207.53,-43.78 -78.77,-14.88 -158.16,-27.42 -228.14,-36.32 -69.99,-8.91 -130.58,-14.2 -178.54,-17.63 -47.97,-3.44 -83.32,-5.04 -112.07,-6.12 -28.76,-1.09 -50.93,-1.67 -77.45,80.08z"/>
  </g>
  <g>
   <path class="fil9" d="M7628.72 4959.69l-17.64 0 0 0 -0.55 -28.54 -1.66 -28.16 -2.72 -27.75 -3.76 -27.3 -4.77 -26.81 -5.76 -26.3 -6.72 -25.74 -7.65 -25.16 -8.55 -24.52 -9.44 -23.87 -10.27 -23.17 -11.1 -22.44 -11.88 -21.68 -12.67 -20.87 -13.38 -20.05 -14.1 -19.16 -14.77 -18.27 -15.43 -17.33 -16.06 -16.35 -16.64 -15.35 -17.21 -14.3 -17.76 -13.23 -18.26 -12.13 -18.75 -10.99 -19.2 -9.81 -19.62 -8.62 -20.04 -7.37 -20.42 -6.11 -20.77 -4.81 -21.1 -3.47 -21.42 -2.12 -21.7 -0.71 0 -17.6 22.86 0.75 22.56 2.22 22.22 3.67 21.87 5.05 21.48 6.43 21.06 7.75 20.6 9.04 20.12 10.29 19.61 11.49 19.08 12.67 18.5 13.79 17.93 14.9 17.3 15.95 16.66 16.97 15.99 17.95 15.29 18.91 14.58 19.82 13.82 20.69 13.05 21.53 12.26 22.34 11.42 23.1 10.57 23.85 9.7 24.53 8.79 25.2 7.85 25.82 6.9 26.42 5.9 26.98 4.89 27.49 3.86 27.98 2.78 28.43 1.7 28.86 0.57 29.22 0 0zm-441.77 570.09l0 -17.6 0 0 21.7 -0.71 21.42 -2.12 21.1 -3.47 20.77 -4.81 20.42 -6.11 20.04 -7.37 19.62 -8.62 19.2 -9.81 18.75 -10.99 18.26 -12.13 17.76 -13.23 17.21 -14.3 16.64 -15.35 16.06 -16.35 15.43 -17.33 14.77 -18.27 14.1 -19.16 13.38 -20.05 12.67 -20.87 11.88 -21.68 11.1 -22.44 10.27 -23.17 9.44 -23.87 8.55 -24.52 7.65 -25.16 6.72 -25.74 5.76 -26.3 4.77 -26.81 3.76 -27.3 2.72 -27.75 1.66 -28.16 0.55 -28.54 17.64 0 -0.57 29.22 -1.7 28.86 -2.78 28.43 -3.86 27.98 -4.89 27.49 -5.9 26.98 -6.9 26.42 -7.85 25.82 -8.79 25.2 -9.7 24.53 -10.57 23.85 -11.42 23.1 -12.26 22.34 -13.05 21.53 -13.82 20.69 -14.58 19.82 -15.29 18.91 -15.99 17.95 -16.66 16.97 -17.3 15.95 -17.93 14.9 -18.5 13.79 -19.08 12.67 -19.61 11.49 -20.12 10.29 -20.6 9.04 -21.06 7.75 -21.48 6.43 -21.87 5.05 -22.22 3.67 -22.56 2.22 -22.86 0.75 0 0zm-441.77 -570.09l17.64 0 0 0 0.55 28.54 1.66 28.16 2.72 27.75 3.76 27.3 4.77 26.81 5.76 26.3 6.72 25.74 7.65 25.16 8.55 24.52 9.44 23.87 10.27 23.17 11.1 22.44 11.88 21.68 12.67 20.87 13.38 20.05 14.1 19.16 14.77 18.27 15.43 17.33 16.06 16.35 16.64 15.35 17.21 14.3 17.76 13.23 18.26 12.13 18.75 10.99 19.2 9.81 19.62 8.62 20.04 7.37 20.42 6.11 20.77 4.81 21.1 3.47 21.42 2.12 21.7 0.71 0 17.6 -22.86 -0.75 -22.56 -2.22 -22.22 -3.67 -21.87 -5.05 -21.48 -6.43 -21.06 -7.75 -20.6 -9.04 -20.12 -10.29 -19.61 -11.49 -19.08 -12.67 -18.5 -13.79 -17.93 -14.9 -17.3 -15.95 -16.66 -16.97 -15.99 -17.95 -15.29 -18.91 -14.58 -19.82 -13.82 -20.69 -13.05 -21.53 -12.26 -22.34 -11.42 -23.1 -10.57 -23.85 -9.7 -24.53 -8.79 -25.2 -7.85 -25.82 -6.9 -26.42 -5.9 -26.98 -4.89 -27.49 -3.86 -27.98 -2.78 -28.43 -1.7 -28.86 -0.57 -29.22 0 0zm441.77 -570.09l0 17.6 0 0 -21.7 0.71 -21.42 2.12 -21.1 3.47 -20.77 4.81 -20.42 6.11 -20.04 7.37 -19.62 8.62 -19.2 9.81 -18.75 10.99 -18.26 12.13 -17.76 13.23 -17.21 14.3 -16.64 15.35 -16.06 16.35 -15.43 17.33 -14.77 18.27 -14.1 19.16 -13.38 20.05 -12.67 20.87 -11.88 21.68 -11.1 22.44 -10.27 23.17 -9.44 23.87 -8.55 24.52 -7.65 25.16 -6.72 25.74 -5.76 26.3 -4.77 26.81 -3.76 27.3 -2.72 27.75 -1.66 28.16 -0.55 28.54 -17.64 0 0.57 -29.22 1.7 -28.86 2.78 -28.43 3.86 -27.98 4.89 -27.49 5.9 -26.98 6.9 -26.42 7.85 -25.82 8.79 -25.2 9.7 -24.53 10.57 -23.85 11.42 -23.1 12.26 -22.34 13.05 -21.53 13.82 -20.69 14.58 -19.82 15.29 -18.91 15.99 -17.95 16.66 -16.97 17.3 -15.95 17.93 -14.9 18.5 -13.79 19.08 -12.67 19.61 -11.49 20.12 -10.29 20.6 -9.04 21.06 -7.75 21.48 -6.43 21.87 -5.05 22.22 -3.67 22.56 -2.22 22.86 -0.75 0 0z"/>
   <path id="1" class="fil4" d="M7186.95 4398.4c239.11,0 432.95,251.3 432.95,561.29 0,309.99 -193.84,561.29 -432.95,561.29 -239.11,0 -432.95,-251.3 -432.95,-561.29 0,-309.99 193.84,-561.29 432.95,-561.29z"/>
  </g>
  <g>
   <path class="fil10" d="M5781.76 4957.75l-17.6 0 0 0 -0.34 -16.61 -1.03 -16.4 -1.7 -16.15 -2.33 -15.89 -2.97 -15.6 -3.59 -15.3 -4.18 -14.98 -4.75 -14.63 -5.32 -14.26 -5.87 -13.89 -6.39 -13.47 -6.9 -13.05 -7.39 -12.6 -7.86 -12.14 -8.33 -11.64 -8.76 -11.15 -9.19 -10.6 -9.57 -10.08 -9.98 -9.49 -10.33 -8.92 -10.7 -8.3 -11.02 -7.69 -11.33 -7.04 -11.63 -6.37 -11.92 -5.7 -12.19 -5 -12.43 -4.28 -12.67 -3.54 -12.89 -2.8 -13.1 -2.02 -13.28 -1.22 -13.48 -0.41 0 -17.64 14.54 0.45 14.36 1.32 14.16 2.18 13.91 3.02 13.67 3.82 13.41 4.62 13.11 5.38 12.8 6.12 12.49 6.83 12.13 7.54 11.78 8.21 11.4 8.86 11.01 9.5 10.6 10.09 10.17 10.68 9.73 11.24 9.26 11.79 8.79 12.3 8.3 12.8 7.79 13.28 7.26 13.73 6.71 14.17 6.17 14.57 5.58 14.98 4.99 15.35 4.38 15.68 3.75 16.04 3.11 16.32 2.45 16.63 1.76 16.87 1.09 17.14 0.36 17.35 0 0zm-281.02 338.86l0 -17.64 0 0 13.48 -0.41 13.28 -1.22 13.1 -2.02 12.89 -2.8 12.67 -3.54 12.43 -4.28 12.19 -5 11.92 -5.7 11.63 -6.37 11.33 -7.04 11.02 -7.69 10.7 -8.3 10.33 -8.92 9.98 -9.49 9.57 -10.07 9.19 -10.62 8.76 -11.14 8.33 -11.64 7.86 -12.14 7.39 -12.6 6.9 -13.05 6.39 -13.47 5.87 -13.89 5.32 -14.26 4.75 -14.63 4.18 -14.98 3.59 -15.3 2.97 -15.6 2.33 -15.89 1.7 -16.15 1.03 -16.4 0.34 -16.61 17.6 0 -0.36 17.35 -1.09 17.14 -1.76 16.87 -2.45 16.63 -3.11 16.32 -3.75 16.04 -4.38 15.68 -4.99 15.35 -5.58 14.98 -6.17 14.57 -6.71 14.17 -7.26 13.73 -7.79 13.28 -8.3 12.8 -8.79 12.3 -9.26 11.78 -9.73 11.24 -10.17 10.69 -10.6 10.09 -11.01 9.5 -11.4 8.86 -11.78 8.21 -12.13 7.54 -12.49 6.83 -12.8 6.12 -13.11 5.38 -13.41 4.62 -13.67 3.82 -13.91 3.02 -14.16 2.18 -14.36 1.32 -14.54 0.45 0 0zm-281.01 -338.86l17.6 0 0 0 0.34 16.61 1.03 16.4 1.7 16.15 2.33 15.89 2.97 15.6 3.59 15.3 4.18 14.98 4.75 14.63 5.32 14.26 5.87 13.89 6.39 13.47 6.9 13.05 7.39 12.6 7.86 12.14 8.33 11.64 8.76 11.14 9.19 10.62 9.57 10.07 9.98 9.49 10.34 8.92 10.68 8.3 11.02 7.69 11.33 7.04 11.64 6.37 11.92 5.7 12.19 5 12.42 4.28 12.67 3.54 12.9 2.8 13.09 2.02 13.28 1.22 13.48 0.41 0 17.64 -14.54 -0.45 -14.36 -1.32 -14.15 -2.18 -13.92 -3.02 -13.67 -3.82 -13.4 -4.62 -13.11 -5.38 -12.8 -6.12 -12.48 -6.83 -12.15 -7.54 -11.78 -8.21 -11.4 -8.86 -11 -9.5 -10.6 -10.09 -10.17 -10.69 -9.73 -11.24 -9.26 -11.78 -8.79 -12.3 -8.3 -12.8 -7.79 -13.28 -7.26 -13.73 -6.71 -14.17 -6.17 -14.57 -5.58 -14.98 -4.99 -15.35 -4.38 -15.68 -3.75 -16.04 -3.11 -16.32 -2.45 -16.63 -1.76 -16.87 -1.09 -17.14 -0.36 -17.35 0 0zm281.01 -338.86l0 17.64 0 0 -13.48 0.41 -13.28 1.22 -13.09 2.02 -12.9 2.8 -12.67 3.54 -12.42 4.28 -12.19 5 -11.92 5.7 -11.64 6.37 -11.33 7.04 -11.02 7.69 -10.68 8.3 -10.34 8.92 -9.98 9.49 -9.57 10.08 -9.19 10.6 -8.76 11.15 -8.33 11.64 -7.86 12.14 -7.39 12.6 -6.9 13.05 -6.39 13.47 -5.87 13.89 -5.32 14.26 -4.75 14.63 -4.18 14.98 -3.59 15.3 -2.97 15.6 -2.33 15.89 -1.7 16.15 -1.03 16.4 -0.34 16.61 -17.6 0 0.36 -17.35 1.09 -17.14 1.76 -16.87 2.45 -16.63 3.11 -16.32 3.75 -16.04 4.38 -15.68 4.99 -15.35 5.58 -14.98 6.17 -14.57 6.71 -14.17 7.26 -13.73 7.79 -13.28 8.3 -12.8 8.79 -12.3 9.26 -11.79 9.73 -11.24 10.17 -10.68 10.6 -10.09 11 -9.5 11.4 -8.86 11.78 -8.21 12.15 -7.54 12.48 -6.83 12.8 -6.12 13.11 -5.38 13.4 -4.62 13.67 -3.82 13.92 -3.02 14.15 -2.18 14.36 -1.32 14.54 -0.45 0 0z"/>
   <path id="1" class="fil11" d="M5500.74 4627.71c150.34,0 272.22,147.76 272.22,330.04 0,182.28 -121.88,330.04 -272.22,330.04 -150.33,0 -272.21,-147.76 -272.21,-330.04 0,-182.28 121.88,-330.04 272.21,-330.04z"/>
  </g>
  <g>
   <path class="fil12" d="M5803.3 4854.87l-15.22 0 0 0 -0.15 -9.58 -0.46 -9.46 -0.75 -9.31 -1.04 -9.15 -1.33 -9 -1.58 -8.81 -1.86 -8.63 -2.11 -8.42 -2.36 -8.2 -2.61 -7.99 -2.82 -7.73 -3.07 -7.49 -3.26 -7.22 -3.47 -6.95 -3.67 -6.66 -3.86 -6.35 -4.04 -6.04 -4.2 -5.73 -4.36 -5.39 -4.5 -5.03 -4.65 -4.68 -4.77 -4.32 -4.9 -3.94 -4.99 -3.55 -5.11 -3.16 -5.19 -2.76 -5.29 -2.36 -5.35 -1.94 -5.43 -1.53 -5.5 -1.09 -5.59 -0.67 -5.65 -0.23 0 -15.24 6.85 0.27 6.77 0.81 6.66 1.33 6.53 1.83 6.41 2.32 6.25 2.8 6.11 3.24 5.93 3.68 5.77 4.09 5.58 4.5 5.41 4.88 5.21 5.26 5.02 5.61 4.82 5.95 4.62 6.29 4.4 6.6 4.2 6.91 3.97 7.2 3.75 7.49 3.5 7.76 3.27 8.01 3.02 8.25 2.77 8.49 2.5 8.72 2.25 8.92 1.96 9.13 1.68 9.31 1.39 9.48 1.1 9.65 0.79 9.81 0.48 9.94 0.17 10.08 0 0zm-129.14 198.61l0 -15.24 0 0 5.65 -0.23 5.59 -0.67 5.5 -1.09 5.43 -1.53 5.35 -1.94 5.29 -2.36 5.19 -2.76 5.11 -3.16 4.99 -3.55 4.9 -3.94 4.77 -4.32 4.65 -4.68 4.5 -5.03 4.36 -5.39 4.2 -5.73 4.04 -6.04 3.86 -6.35 3.67 -6.66 3.47 -6.95 3.26 -7.22 3.07 -7.49 2.82 -7.73 2.61 -7.99 2.36 -8.2 2.11 -8.42 1.86 -8.63 1.58 -8.81 1.33 -9 1.04 -9.15 0.75 -9.31 0.46 -9.46 0.15 -9.58 15.22 0 -0.17 10.08 -0.48 9.94 -0.79 9.81 -1.1 9.65 -1.39 9.48 -1.68 9.31 -1.96 9.13 -2.25 8.92 -2.5 8.72 -2.77 8.49 -3.02 8.25 -3.27 8.01 -3.5 7.76 -3.75 7.49 -3.97 7.2 -4.2 6.91 -4.4 6.6 -4.62 6.29 -4.82 5.95 -5.02 5.61 -5.21 5.26 -5.41 4.88 -5.58 4.5 -5.77 4.09 -5.93 3.68 -6.11 3.24 -6.25 2.8 -6.41 2.32 -6.53 1.83 -6.66 1.33 -6.77 0.81 -6.85 0.27 0 0zm-129.13 -198.61l15.22 0 0 0 0.15 9.58 0.46 9.46 0.75 9.31 1.04 9.15 1.33 9 1.58 8.81 1.86 8.63 2.11 8.42 2.36 8.2 2.61 7.99 2.82 7.73 3.06 7.49 3.27 7.22 3.47 6.95 3.67 6.66 3.85 6.35 4.04 6.04 4.2 5.73 4.36 5.38 4.51 5.04 4.65 4.68 4.77 4.32 4.9 3.94 4.99 3.55 5.11 3.16 5.2 2.76 5.27 2.36 5.35 1.94 5.43 1.53 5.51 1.09 5.58 0.67 5.65 0.23 0 15.24 -6.85 -0.27 -6.76 -0.81 -6.67 -1.33 -6.53 -1.83 -6.41 -2.32 -6.25 -2.8 -6.1 -3.24 -5.93 -3.68 -5.77 -4.09 -5.58 -4.5 -5.41 -4.88 -5.21 -5.26 -5.03 -5.6 -4.82 -5.96 -4.62 -6.29 -4.4 -6.6 -4.19 -6.91 -3.97 -7.2 -3.75 -7.49 -3.51 -7.76 -3.26 -8.01 -3.02 -8.25 -2.77 -8.49 -2.5 -8.72 -2.25 -8.92 -1.96 -9.13 -1.68 -9.31 -1.39 -9.48 -1.1 -9.65 -0.79 -9.81 -0.48 -9.94 -0.17 -10.08 0 0zm129.13 -198.61l0 15.24 0 0 -5.65 0.23 -5.58 0.67 -5.51 1.09 -5.43 1.53 -5.35 1.94 -5.27 2.36 -5.2 2.76 -5.11 3.16 -4.99 3.55 -4.9 3.94 -4.77 4.32 -4.65 4.68 -4.51 5.04 -4.36 5.38 -4.2 5.73 -4.04 6.04 -3.85 6.35 -3.67 6.66 -3.47 6.95 -3.27 7.22 -3.06 7.49 -2.82 7.73 -2.61 7.99 -2.36 8.2 -2.11 8.42 -1.86 8.63 -1.58 8.81 -1.33 9 -1.04 9.15 -0.75 9.31 -0.46 9.46 -0.15 9.58 -15.22 0 0.17 -10.08 0.48 -9.94 0.79 -9.81 1.1 -9.65 1.39 -9.48 1.68 -9.31 1.96 -9.13 2.25 -8.92 2.5 -8.72 2.77 -8.49 3.02 -8.25 3.26 -8.01 3.51 -7.76 3.75 -7.49 3.97 -7.2 4.19 -6.91 4.4 -6.6 4.62 -6.29 4.82 -5.96 5.03 -5.6 5.21 -5.26 5.41 -4.88 5.58 -4.5 5.77 -4.09 5.93 -3.68 6.1 -3.24 6.25 -2.8 6.41 -2.32 6.53 -1.83 6.67 -1.33 6.76 -0.81 6.85 -0.27 0 0z"/>
   <path id="1" class="fil6" d="M5674.16 4663.88c67.12,0 121.53,85.51 121.53,190.99 0,105.48 -54.41,190.99 -121.53,190.99 -67.11,0 -121.52,-85.51 -121.52,-190.99 0,-105.48 54.41,-190.99 121.52,-190.99z"/>
  </g>
  <g>
   <path class="fil10" d="M7532.89 4937.44l-17.64 0 0 0 -0.39 -21.24 -1.19 -20.96 -1.92 -20.66 -2.68 -20.31 -3.41 -19.96 -4.09 -19.56 -4.78 -19.16 -5.44 -18.71 -6.09 -18.24 -6.71 -17.75 -7.3 -17.22 -7.89 -16.69 -8.45 -16.11 -8.99 -15.51 -9.51 -14.89 -10.01 -14.23 -10.5 -13.56 -10.94 -12.86 -11.39 -12.13 -11.8 -11.38 -12.19 -10.6 -12.58 -9.81 -12.93 -8.97 -13.26 -8.13 -13.58 -7.26 -13.87 -6.36 -14.15 -5.45 -14.42 -4.51 -14.67 -3.55 -14.88 -2.57 -15.11 -1.55 -15.31 -0.53 0 -17.66 16.51 0.57 16.31 1.67 16.06 2.77 15.79 3.83 15.52 4.85 15.19 5.85 14.87 6.82 14.5 7.76 14.14 8.65 13.75 9.55 13.32 10.39 12.89 11.2 12.46 12 11.97 12.77 11.5 13.5 10.98 14.2 10.47 14.89 9.93 15.53 9.37 16.17 8.79 16.77 8.21 17.33 7.58 17.88 6.95 18.41 6.31 18.9 5.62 19.37 4.96 19.8 4.23 20.22 3.51 20.62 2.76 20.97 2 21.32 1.21 21.62 0.41 21.9 0 0zm-318.07 428.09l0 -17.66 0 0 15.31 -0.53 15.11 -1.55 14.88 -2.57 14.67 -3.55 14.42 -4.51 14.15 -5.45 13.87 -6.36 13.58 -7.26 13.26 -8.13 12.93 -8.97 12.58 -9.81 12.19 -10.6 11.8 -11.38 11.39 -12.13 10.94 -12.86 10.5 -13.56 10.01 -14.23 9.51 -14.89 8.99 -15.51 8.45 -16.11 7.89 -16.68 7.3 -17.24 6.71 -17.74 6.09 -18.25 5.44 -18.7 4.78 -19.17 4.09 -19.56 3.41 -19.95 2.68 -20.32 1.92 -20.65 1.19 -20.97 0.39 -21.24 17.64 0 -0.41 21.9 -1.21 21.63 -2 21.31 -2.76 20.98 -3.51 20.61 -4.23 20.22 -4.96 19.81 -5.62 19.36 -6.31 18.91 -6.95 18.4 -7.58 17.88 -8.21 17.34 -8.79 16.77 -9.37 16.17 -9.93 15.53 -10.47 14.89 -10.98 14.2 -11.5 13.5 -11.97 12.77 -12.46 12 -12.89 11.2 -13.32 10.39 -13.75 9.55 -14.14 8.65 -14.5 7.76 -14.87 6.82 -15.19 5.85 -15.52 4.85 -15.79 3.83 -16.06 2.77 -16.31 1.67 -16.51 0.57 0 0zm-318.07 -428.09l17.64 0 0 0 0.39 21.24 1.19 20.97 1.92 20.65 2.68 20.32 3.41 19.95 4.09 19.56 4.78 19.17 5.44 18.7 6.09 18.25 6.71 17.74 7.3 17.24 7.89 16.68 8.45 16.11 8.99 15.51 9.51 14.89 10.01 14.23 10.5 13.56 10.94 12.86 11.39 12.13 11.8 11.38 12.19 10.6 12.58 9.81 12.93 8.97 13.26 8.13 13.58 7.26 13.87 6.36 14.15 5.45 14.42 4.51 14.67 3.55 14.88 2.57 15.11 1.55 15.31 0.53 0 17.66 -16.51 -0.57 -16.31 -1.67 -16.06 -2.77 -15.79 -3.83 -15.52 -4.85 -15.19 -5.85 -14.87 -6.82 -14.5 -7.76 -14.14 -8.65 -13.75 -9.55 -13.32 -10.39 -12.89 -11.2 -12.46 -12 -11.97 -12.77 -11.5 -13.5 -10.98 -14.2 -10.47 -14.89 -9.93 -15.53 -9.37 -16.17 -8.79 -16.77 -8.21 -17.34 -7.58 -17.88 -6.95 -18.4 -6.31 -18.91 -5.62 -19.36 -4.96 -19.81 -4.23 -20.22 -3.51 -20.61 -2.76 -20.98 -2 -21.31 -1.21 -21.63 -0.41 -21.9 0 0zm318.07 -428.08l0 17.66 0 0 -15.31 0.53 -15.11 1.55 -14.88 2.57 -14.67 3.55 -14.42 4.51 -14.15 5.45 -13.87 6.36 -13.58 7.26 -13.26 8.13 -12.93 8.97 -12.58 9.81 -12.19 10.6 -11.8 11.38 -11.39 12.13 -10.94 12.86 -10.5 13.56 -10.01 14.23 -9.51 14.89 -8.99 15.51 -8.45 16.11 -7.89 16.69 -7.3 17.22 -6.71 17.75 -6.09 18.24 -5.44 18.71 -4.78 19.16 -4.09 19.56 -3.41 19.96 -2.68 20.31 -1.92 20.66 -1.19 20.96 -0.39 21.24 -17.64 0 0.41 -21.9 1.21 -21.62 2 -21.32 2.76 -20.97 3.51 -20.62 4.23 -20.22 4.96 -19.8 5.62 -19.37 6.31 -18.9 6.95 -18.41 7.58 -17.88 8.21 -17.33 8.79 -16.77 9.37 -16.17 9.93 -15.53 10.47 -14.89 10.98 -14.2 11.5 -13.5 11.97 -12.77 12.46 -12 12.89 -11.2 13.32 -10.39 13.75 -9.55 14.14 -8.65 14.5 -7.76 14.87 -6.82 15.19 -5.85 15.52 -4.85 15.79 -3.83 16.06 -2.77 16.31 -1.67 16.51 -0.57 0 0z"/>
   <path id="1" class="fil11" d="M7214.82 4518.19c170.79,0 309.25,187.71 309.25,419.25 0,231.55 -138.46,419.26 -309.25,419.26 -170.79,0 -309.25,-187.71 -309.25,-419.26 0,-231.54 138.46,-419.25 309.25,-419.25z"/>
  </g>
  <g>
   <path class="fil0 str8" d="M3950.89 5934.3c291.99,448.44 583.97,896.88 857.85,1191.66 273.87,294.77 529.64,435.88 688.39,513.05 158.75,77.17 220.48,90.4 282.22,103.63"/>
  </g>
  <g>
   <path class="fil0 str8" d="M6738.42 7620.24c196.25,-34.16 392.49,-68.33 633.93,-208.88 241.44,-140.56 528.08,-387.5 764,-643.26 235.92,-255.77 421.12,-520.36 531.3,-647.95 110.18,-127.6 145.33,-118.2 180.48,-108.81"/>
  </g>
  <g>
   <path class="fil13" d="M7098.47 7742.28l-18.86 0 0 0 -1.01 -25.19 -2.99 -24.86 -4.91 -24.5 -6.8 -24.12 -8.65 -23.71 -10.44 -23.27 -12.18 -22.81 -13.9 -22.31 -15.55 -21.78 -17.17 -21.23 -18.73 -20.63 -20.26 -20 -21.73 -19.35 -23.16 -18.65 -24.53 -17.94 -25.88 -17.17 -27.14 -16.39 -28.38 -15.56 -29.55 -14.71 -30.7 -13.81 -31.77 -12.89 -32.81 -11.95 -33.79 -10.96 -34.73 -9.94 -35.61 -8.89 -36.44 -7.8 -37.22 -6.69 -37.97 -5.55 -38.63 -4.37 -39.29 -3.16 -39.86 -1.92 -40.4 -0.65 0 -16.82 41.08 0.65 40.54 1.96 39.95 3.2 39.33 4.45 38.63 5.65 37.9 6.81 37.12 7.96 36.29 9.05 35.41 10.14 34.47 11.18 33.49 12.19 32.47 13.17 31.38 14.13 30.25 15.05 29.06 15.94 27.84 16.81 26.56 17.63 25.23 18.44 23.84 19.21 22.41 19.95 20.92 20.66 19.39 21.35 17.79 21.99 16.15 22.62 14.46 23.21 12.7 23.77 10.9 24.29 9.03 24.79 7.12 25.24 5.15 25.66 3.13 26.04 1.05 26.39 0 0zm-801.04 509.58l0 -16.82 0 0 40.4 -0.65 39.86 -1.92 39.29 -3.16 38.63 -4.37 37.97 -5.55 37.22 -6.69 36.44 -7.8 35.61 -8.89 34.73 -9.94 33.79 -10.96 32.81 -11.95 31.77 -12.89 30.7 -13.81 29.55 -14.71 28.38 -15.56 27.14 -16.39 25.88 -17.17 24.53 -17.94 23.16 -18.65 21.73 -19.35 20.26 -20 18.73 -20.63 17.17 -21.23 15.55 -21.78 13.9 -22.31 12.18 -22.81 10.44 -23.27 8.65 -23.71 6.8 -24.12 4.91 -24.5 2.99 -24.86 1.01 -25.19 18.86 0 -1.05 26.39 -3.13 26.04 -5.15 25.66 -7.12 25.24 -9.03 24.79 -10.9 24.29 -12.7 23.77 -14.46 23.21 -16.15 22.62 -17.79 21.99 -19.39 21.35 -20.92 20.66 -22.41 19.95 -23.84 19.21 -25.23 18.44 -26.56 17.63 -27.84 16.81 -29.06 15.94 -30.25 15.05 -31.38 14.13 -32.47 13.17 -33.49 12.19 -34.47 11.18 -35.41 10.14 -36.29 9.05 -37.12 7.96 -37.9 6.81 -38.63 5.65 -39.33 4.45 -39.95 3.2 -40.54 1.96 -41.08 0.65 0 0zm-801.04 -509.58l18.86 0 0 0 1.01 25.19 2.99 24.86 4.91 24.5 6.8 24.12 8.65 23.71 10.44 23.27 12.18 22.81 13.9 22.31 15.55 21.78 17.17 21.23 18.73 20.63 20.26 20 21.73 19.35 23.16 18.65 24.53 17.94 25.87 17.17 27.15 16.39 28.38 15.56 29.55 14.71 30.7 13.81 31.77 12.89 32.81 11.95 33.79 10.96 34.73 9.94 35.61 8.89 36.44 7.8 37.22 6.69 37.97 5.55 38.63 4.37 39.29 3.16 39.86 1.92 40.4 0.65 0 16.82 -41.08 -0.65 -40.54 -1.96 -39.95 -3.2 -39.33 -4.45 -38.63 -5.65 -37.9 -6.81 -37.12 -7.96 -36.29 -9.05 -35.41 -10.14 -34.47 -11.18 -33.49 -12.19 -32.47 -13.17 -31.38 -14.13 -30.25 -15.05 -29.06 -15.94 -27.85 -16.81 -26.55 -17.63 -25.23 -18.44 -23.84 -19.21 -22.41 -19.95 -20.92 -20.66 -19.39 -21.35 -17.79 -21.99 -16.15 -22.62 -14.46 -23.21 -12.7 -23.77 -10.9 -24.29 -9.03 -24.79 -7.12 -25.24 -5.15 -25.66 -3.13 -26.04 -1.05 -26.39 0 0zm801.04 -509.58l0 16.82 0 0 -40.4 0.65 -39.86 1.92 -39.29 3.16 -38.63 4.37 -37.97 5.55 -37.22 6.69 -36.44 7.8 -35.61 8.89 -34.73 9.94 -33.79 10.96 -32.81 11.95 -31.77 12.89 -30.7 13.81 -29.55 14.71 -28.38 15.56 -27.15 16.39 -25.87 17.17 -24.53 17.94 -23.16 18.65 -21.73 19.35 -20.26 20 -18.73 20.63 -17.17 21.23 -15.55 21.78 -13.9 22.31 -12.18 22.81 -10.44 23.27 -8.65 23.71 -6.8 24.12 -4.91 24.5 -2.99 24.86 -1.01 25.19 -18.86 0 1.05 -26.39 3.13 -26.04 5.15 -25.66 7.12 -25.24 9.03 -24.79 10.9 -24.29 12.7 -23.77 14.46 -23.21 16.15 -22.62 17.79 -21.99 19.39 -21.35 20.92 -20.66 22.41 -19.95 23.84 -19.21 25.23 -18.44 26.55 -17.63 27.85 -16.81 29.06 -15.94 30.25 -15.05 31.38 -14.13 32.47 -13.17 33.49 -12.19 34.47 -11.18 35.41 -10.14 36.29 -9.05 37.12 -7.96 37.9 -6.81 38.63 -5.65 39.33 -4.45 39.95 -3.2 40.54 -1.96 41.08 -0.65 0 0z"/>
   <path id="1" class="fil1" d="M6297.43 7241.11c437.2,0 791.61,224.38 791.61,501.17 0,276.79 -354.41,501.17 -791.61,501.17 -437.2,0 -791.61,-224.38 -791.61,-501.17 0,-276.79 354.41,-501.17 791.61,-501.17z"/>
  </g>
  <g>
   <path class="fil0 str10" d="M4068.09 6426.05c-50.44,35.6 -141.95,21.27 -217.46,-29.99 -75.52,-51.27 -135.05,-139.46 -165.92,-369.32 -30.87,-229.86 -33.07,-601.38 -67.24,-919.43 -34.18,-318.05 -100.33,-582.62 -151.04,-761.21 -50.71,-178.6 -85.98,-271.2 -4.4,-628.39 81.58,-357.19 280.01,-978.96 496.09,-1428.75 216.08,-449.79 449.79,-727.61 714.38,-959.12 264.58,-231.51 560.03,-416.72 829.03,-530.83 268.99,-114.12 511.52,-157.14 789.34,-154.93 277.81,2.2 590.9,49.63 939.27,210.05 348.37,160.41 732.01,433.82 1036.28,751.32 304.27,317.5 529.17,679.1 698.94,1098.03 169.77,418.92 284.43,895.17 341.76,1166.37 57.32,271.2 57.32,337.34 17.64,467.43 -39.69,130.09 -119.07,324.11 -165.37,601.93 -46.3,277.81 -59.53,639.4 -81.58,892.96 -22.05,253.56 -52.91,399.09 -112.63,484.37 -59.73,85.28 -148.31,110.31 -192.6,122.83 -44.29,12.52 -44.29,12.52 -21.78,-87.18 22.5,-99.71 67.5,-299.12 80.75,-547.88 13.25,-248.76 -5.26,-546.87 -43,-805.85 -37.75,-258.98 -94.73,-478.82 -209.21,-654.89 -114.48,-176.07 -286.46,-308.36 -573.48,-416.04 -287.03,-107.68 -689.1,-190.74 -1087.14,-230.55 -398.05,-39.81 -792.07,-36.36 -1167.59,15.77 -375.53,52.13 -732.56,152.94 -987.15,267.72 -254.6,114.77 -406.76,243.5 -518.11,385.04 -111.36,141.54 -181.92,295.88 -236.31,503.01 -54.4,207.13 -92.65,467.05 -68.66,700.99 23.98,233.94 110.19,441.9 148.61,588.65 38.41,146.75 29.02,232.28 -21.42,267.89z"/>
   <path id="1" class="fil2" d="M4068.09 6426.05c-50.44,35.6 -141.95,21.27 -217.46,-29.99 -75.52,-51.27 -135.05,-139.46 -165.92,-369.32 -30.87,-229.86 -33.07,-601.38 -67.24,-919.43 -34.18,-318.05 -100.33,-582.62 -151.04,-761.21 -50.71,-178.6 -85.98,-271.2 -4.4,-628.39 81.58,-357.19 280.01,-978.96 496.09,-1428.75 216.08,-449.79 449.79,-727.61 714.38,-959.12 264.58,-231.51 560.03,-416.72 829.03,-530.83 268.99,-114.12 511.52,-157.14 789.34,-154.93 277.81,2.2 590.9,49.63 939.27,210.05 348.37,160.41 732.01,433.82 1036.28,751.32 304.27,317.5 529.17,679.1 698.94,1098.03 169.77,418.92 284.43,895.17 341.76,1166.37 57.32,271.2 57.32,337.34 17.64,467.43 -39.69,130.09 -119.07,324.11 -165.37,601.93 -46.3,277.81 -59.53,639.4 -81.58,892.96 -22.05,253.56 -52.91,399.09 -112.63,484.37 -59.73,85.28 -148.31,110.31 -192.6,122.83 -44.29,12.52 -44.29,12.52 -21.78,-87.18 22.5,-99.71 67.5,-299.12 80.75,-547.88 13.25,-248.76 -5.26,-546.87 -43,-805.85 -37.75,-258.98 -94.73,-478.82 -209.21,-654.89 -114.48,-176.07 -286.46,-308.36 -573.48,-416.04 -287.03,-107.68 -689.1,-190.74 -1087.14,-230.55 -398.05,-39.81 -792.07,-36.36 -1167.59,15.77 -375.53,52.13 -732.56,152.94 -987.15,267.72 -254.6,114.77 -406.76,243.5 -518.11,385.04 -111.36,141.54 -181.92,295.88 -236.31,503.01 -54.4,207.13 -92.65,467.05 -68.66,700.99 23.98,233.94 110.19,441.9 148.61,588.65 38.41,146.75 29.02,232.28 -21.42,267.89z"/>
  </g>
  <g>
   <path class="fil0 str0" d="M9068.82 6154.93c34.54,64.31 125.4,63.71 206.11,6.08 80.7,-57.63 151.25,-172.29 224.01,-430.26 72.76,-257.97 147.73,-659.25 156.55,-954.7 8.81,-295.46 -48.51,-485.07 -110.71,-579.55 -62.2,-94.49 -129.28,-93.84 -162.81,-93.51 -33.54,0.32 -33.54,0.32 -44.13,59.52 -10.59,59.19 -31.78,177.57 -63.28,316.89 -31.51,139.32 -73.34,299.56 -102.44,453.96 -29.11,154.4 -45.48,302.95 -59.08,451.78 -13.6,148.82 -24.41,297.93 -40.7,437.1 -16.3,139.16 -38.06,268.38 -3.52,332.69z"/>
   <path id="1" class="fil1" d="M9068.82 6154.93c34.54,64.31 125.4,63.71 206.11,6.08 80.7,-57.63 151.25,-172.29 224.01,-430.26 72.76,-257.97 147.73,-659.25 156.55,-954.7 8.81,-295.46 -48.51,-485.07 -110.71,-579.55 -62.2,-94.49 -129.28,-93.84 -162.81,-93.51 -33.54,0.32 -33.54,0.32 -44.13,59.52 -10.59,59.19 -31.78,177.57 -63.28,316.89 -31.51,139.32 -73.34,299.56 -102.44,453.96 -29.11,154.4 -45.48,302.95 -59.08,451.78 -13.6,148.82 -24.41,297.93 -40.7,437.1 -16.3,139.16 -38.06,268.38 -3.52,332.69z"/>
  </g>
  <g>
   <path class="fil0 str0" d="M3373.21 4090.25c-43.91,9.54 -128.58,76.47 -179.73,215.77 -51.16,139.3 -68.8,350.96 -59.98,633.19 8.82,282.22 44.1,634.99 101.43,870.91 57.32,235.92 136.7,354.99 219.32,393.3 82.61,38.31 168.47,-4.13 196.22,-200.27 27.74,-196.15 -2.63,-545.99 -30.15,-796.73 -27.53,-250.75 -52.21,-402.39 -77.38,-529.26 -25.18,-126.87 -50.84,-228.96 -70.84,-308.3 -20.01,-79.34 -34.34,-135.91 -43.08,-188.12 -8.75,-52.21 -11.9,-100.04 -55.81,-90.49z"/>
   <path id="1" class="fil1" d="M3373.21 4090.25c-43.91,9.54 -128.58,76.47 -179.73,215.77 -51.16,139.3 -68.8,350.96 -59.98,633.19 8.82,282.22 44.1,634.99 101.43,870.91 57.32,235.92 136.7,354.99 219.32,393.3 82.61,38.31 168.47,-4.13 196.22,-200.27 27.74,-196.15 -2.63,-545.99 -30.15,-796.73 -27.53,-250.75 -52.21,-402.39 -77.38,-529.26 -25.18,-126.87 -50.84,-228.96 -70.84,-308.3 -20.01,-79.34 -34.34,-135.91 -43.08,-188.12 -8.75,-52.21 -11.9,-100.04 -55.81,-90.49z"/>
  </g>
  <g>
   <path class="fil0 str4" d="M4811.99 1214.22c-44.32,178.82 -73.23,337.05 -62.4,544.42 11.1,212.81 64.01,477.4 134.57,730.96 70.56,253.56 158.75,496.09 202.85,617.36 44.1,121.27 44.1,121.27 132.3,105.84 88.19,-15.44 264.57,-46.3 445.37,-74.96 180.8,-28.67 366.01,-55.13 601.93,-66.15 235.92,-11.03 522.56,-6.62 758.48,30.87 235.92,37.48 421.12,108.03 513.73,143.31 92.6,35.28 92.6,35.28 136.7,-68.35 44.09,-103.63 132.29,-310.88 208.93,-618.53 76.64,-307.65 141.74,-715.7 174.29,-919.72 19.48,-122.13 27.29,-171.15 13.99,-220.73 -264.53,-236.7 -564.78,-436.49 -842.59,-564.41 -348.37,-160.42 -661.46,-207.85 -939.27,-210.05 -277.82,-2.21 -520.35,40.81 -789.34,154.93 -222.56,94.41 -463.23,237.5 -689.54,415.21z"/>
   <path id="1" class="fil3" d="M4811.99 1214.22c-44.32,178.82 -73.23,337.05 -62.4,544.42 11.1,212.81 64.01,477.4 134.57,730.96 70.56,253.56 158.75,496.09 202.85,617.36 44.1,121.27 44.1,121.27 132.3,105.84 88.19,-15.44 264.57,-46.3 445.37,-74.96 180.8,-28.67 366.01,-55.13 601.93,-66.15 235.92,-11.03 522.56,-6.62 758.48,30.87 235.92,37.48 421.12,108.03 513.73,143.31 92.6,35.28 92.6,35.28 136.7,-68.35 44.09,-103.63 132.29,-310.88 208.93,-618.53 76.64,-307.65 141.74,-715.7 174.29,-919.72 19.48,-122.13 27.29,-171.15 13.99,-220.73 -264.53,-236.7 -564.78,-436.49 -842.59,-564.41 -348.37,-160.42 -661.46,-207.85 -939.27,-210.05 -277.82,-2.21 -520.35,40.81 -789.34,154.93 -222.56,94.41 -463.23,237.5 -689.54,415.21z"/>
  </g>
  <g>
   <path class="fil0 str4" d="M3965.09 5580.4c14.37,-18.76 34.57,-150.27 100.89,-296.5 66.32,-146.24 178.76,-307.2 303.61,-451.34 124.85,-144.14 262.1,-271.46 409.2,-367.89 147.1,-96.43 304.05,-161.95 506.63,-198.61 202.57,-36.66 450.76,-44.45 668.57,-52.75 217.8,-8.31 405.22,-17.13 621.3,-17.13 216.07,0 460.81,8.82 720.99,61.74 260.17,52.91 535.77,149.93 751.85,280.02 216.08,130.08 372.62,293.24 493.85,468.51 121.22,175.26 207.11,362.63 250.2,471.78 43.08,109.14 43.34,140.07 38.92,73.09 -4.43,-66.98 -13.55,-231.86 -38.99,-441.32 -25.45,-209.47 -67.21,-463.53 -147.36,-641.16 -80.16,-177.63 -198.7,-278.85 -347.39,-373.86 -148.69,-95.02 -327.54,-183.83 -562.33,-249.13 -234.8,-65.3 -525.56,-107.09 -784.83,-132.08 -259.27,-25 -487.06,-33.21 -705.36,-26.88 -218.3,6.32 -427.11,27.18 -689.41,76.21 -262.3,49.02 -578.1,126.21 -803.25,211.54 -225.16,85.32 -359.69,178.79 -454.51,270.72 -94.82,91.93 -149.94,182.33 -193.2,293.31 -43.27,110.98 -74.67,242.54 -101.17,391.39 -26.5,148.84 -48.09,314.98 -54.61,445.05 -6.52,130.06 2.03,224.05 16.4,205.29z"/>
   <path id="1" class="fil3" d="M3965.09 5580.4c14.37,-18.76 34.57,-150.27 100.89,-296.5 66.32,-146.24 178.76,-307.2 303.61,-451.34 124.85,-144.14 262.1,-271.46 409.2,-367.89 147.1,-96.43 304.05,-161.95 506.63,-198.61 202.57,-36.66 450.76,-44.45 668.57,-52.75 217.8,-8.31 405.22,-17.13 621.3,-17.13 216.07,0 460.81,8.82 720.99,61.74 260.17,52.91 535.77,149.93 751.85,280.02 216.08,130.08 372.62,293.24 493.85,468.51 121.22,175.26 207.11,362.63 250.2,471.78 43.08,109.14 43.34,140.07 38.92,73.09 -4.43,-66.98 -13.55,-231.86 -38.99,-441.32 -25.45,-209.47 -67.21,-463.53 -147.36,-641.16 -80.16,-177.63 -198.7,-278.85 -347.39,-373.86 -148.69,-95.02 -327.54,-183.83 -562.33,-249.13 -234.8,-65.3 -525.56,-107.09 -784.83,-132.08 -259.27,-25 -487.06,-33.21 -705.36,-26.88 -218.3,6.32 -427.11,27.18 -689.41,76.21 -262.3,49.02 -578.1,126.21 -803.25,211.54 -225.16,85.32 -359.69,178.79 -454.51,270.72 -94.82,91.93 -149.94,182.33 -193.2,293.31 -43.27,110.98 -74.67,242.54 -101.17,391.39 -26.5,148.84 -48.09,314.98 -54.61,445.05 -6.52,130.06 2.03,224.05 16.4,205.29z"/>
  </g>
  <g>
   <path class="fil14" d="M7532.89 4868.75l-17.64 0 0 0 -0.2 -13.23 -0.58 -13.04 -0.97 -12.85 -1.34 -12.64 -1.7 -12.42 -2.04 -12.16 -2.39 -11.91 -2.72 -11.63 -3.03 -11.33 -3.35 -11.02 -3.63 -10.69 -3.93 -10.35 -4.21 -9.97 -4.47 -9.6 -4.72 -9.21 -4.96 -8.79 -5.2 -8.36 -5.4 -7.91 -5.62 -7.45 -5.8 -6.96 -5.98 -6.48 -6.15 -5.96 -6.3 -5.45 -6.43 -4.92 -6.56 -4.36 -6.69 -3.82 -6.77 -3.25 -6.87 -2.68 -6.97 -2.09 -7.06 -1.52 -7.14 -0.92 -7.24 -0.3 0 -17.6 8.74 0.38 8.62 1.1 8.48 1.82 8.33 2.51 8.15 3.18 7.95 3.81 7.75 4.42 7.54 5.02 7.31 5.58 7.1 6.13 6.85 6.66 6.62 7.16 6.36 7.64 6.12 8.11 5.86 8.57 5.58 9 5.32 9.41 5.04 9.81 4.75 10.2 4.45 10.57 4.15 10.93 3.83 11.25 3.51 11.58 3.19 11.89 2.84 12.17 2.49 12.45 2.14 12.7 1.78 12.94 1.38 13.18 1.01 13.37 0.62 13.58 0.2 13.75 0 0zm-164.06 270.87l0 -17.6 0 0 7.24 -0.3 7.14 -0.92 7.06 -1.52 6.97 -2.09 6.87 -2.68 6.77 -3.25 6.69 -3.82 6.56 -4.36 6.43 -4.92 6.3 -5.45 6.15 -5.96 5.98 -6.48 5.8 -6.96 5.62 -7.45 5.4 -7.91 5.2 -8.36 4.96 -8.79 4.72 -9.21 4.47 -9.6 4.21 -9.97 3.93 -10.35 3.63 -10.69 3.35 -11.02 3.03 -11.33 2.72 -11.63 2.39 -11.91 2.04 -12.16 1.7 -12.42 1.34 -12.64 0.97 -12.85 0.58 -13.04 0.2 -13.23 17.64 0 -0.2 13.75 -0.62 13.58 -1.01 13.37 -1.38 13.18 -1.78 12.94 -2.14 12.7 -2.49 12.45 -2.84 12.17 -3.19 11.89 -3.51 11.58 -3.83 11.25 -4.15 10.93 -4.45 10.57 -4.75 10.2 -5.04 9.81 -5.32 9.41 -5.58 9 -5.86 8.57 -6.12 8.11 -6.36 7.64 -6.62 7.16 -6.85 6.66 -7.1 6.13 -7.31 5.58 -7.54 5.02 -7.75 4.42 -7.95 3.81 -8.15 3.18 -8.33 2.51 -8.48 1.82 -8.62 1.1 -8.74 0.38 0 0zm-164.05 -270.87l17.64 0 0 0 0.2 13.23 0.58 13.04 0.97 12.85 1.34 12.64 1.7 12.42 2.04 12.16 2.39 11.91 2.72 11.63 3.03 11.33 3.35 11.02 3.63 10.69 3.93 10.35 4.21 9.97 4.47 9.6 4.72 9.21 4.96 8.79 5.2 8.36 5.4 7.91 5.61 7.45 5.81 6.96 5.98 6.48 6.15 5.97 6.29 5.44 6.44 4.92 6.56 4.36 6.68 3.82 6.78 3.24 6.87 2.69 6.97 2.09 7.05 1.52 7.14 0.92 7.24 0.3 0 17.6 -8.74 -0.38 -8.62 -1.1 -8.49 -1.82 -8.31 -2.51 -8.15 -3.17 -7.96 -3.82 -7.74 -4.42 -7.54 -5.02 -7.32 -5.58 -7.09 -6.14 -6.85 -6.65 -6.62 -7.16 -6.37 -7.64 -6.11 -8.11 -5.86 -8.57 -5.58 -9 -5.32 -9.41 -5.04 -9.81 -4.75 -10.2 -4.45 -10.57 -4.15 -10.93 -3.83 -11.25 -3.51 -11.58 -3.19 -11.89 -2.84 -12.17 -2.49 -12.45 -2.14 -12.7 -1.78 -12.94 -1.38 -13.18 -1.01 -13.37 -0.62 -13.58 -0.2 -13.75 0 0zm164.05 -270.87l0 17.6 0 0 -7.24 0.3 -7.14 0.92 -7.05 1.52 -6.97 2.09 -6.87 2.69 -6.78 3.24 -6.68 3.82 -6.56 4.36 -6.44 4.92 -6.29 5.44 -6.15 5.97 -5.98 6.48 -5.81 6.96 -5.61 7.45 -5.4 7.91 -5.2 8.36 -4.96 8.79 -4.72 9.21 -4.47 9.6 -4.21 9.97 -3.93 10.35 -3.63 10.69 -3.35 11.02 -3.03 11.33 -2.72 11.63 -2.39 11.91 -2.04 12.16 -1.7 12.42 -1.34 12.64 -0.97 12.85 -0.58 13.04 -0.2 13.23 -17.64 0 0.2 -13.75 0.62 -13.58 1.01 -13.37 1.38 -13.18 1.78 -12.94 2.14 -12.7 2.49 -12.45 2.84 -12.17 3.19 -11.89 3.51 -11.58 3.83 -11.25 4.15 -10.93 4.45 -10.57 4.75 -10.2 5.04 -9.81 5.32 -9.41 5.58 -9 5.86 -8.57 6.11 -8.11 6.37 -7.64 6.62 -7.16 6.85 -6.65 7.09 -6.14 7.32 -5.58 7.54 -5.02 7.74 -4.42 7.96 -3.82 8.15 -3.17 8.31 -2.51 8.49 -1.82 8.62 -1.1 8.74 -0.38 0 0z"/>
   <path id="1" class="fil8" d="M7368.83 4606.68c85.74,0 155.24,117.33 155.24,262.07 0,144.74 -69.5,262.07 -155.24,262.07 -85.73,0 -155.23,-117.33 -155.23,-262.07 0,-144.74 69.5,-262.07 155.23,-262.07z"/>
  </g>
 </g>
</svg>
